<svg width="36" height="37" viewBox="0 0 36 37" fill="none" xmlns="http://www.w3.org/2000/svg">
<path d="M18 3.5C9.72 3.5 3 10.22 3 18.5C3 26.78 9.72 33.5 18 33.5C26.28 33.5 33 26.78 33 18.5C33 10.22 26.28 3.5 18 3.5ZM18 30.5C11.37 30.5 6 25.13 6 18.5C6 11.87 11.37 6.5 18 6.5C24.63 6.5 30 11.87 30 18.5C30 25.13 24.63 30.5 18 30.5Z" fill="#FB883B"/>
<path d="M10.5 20.75C11.7426 20.75 12.75 19.7426 12.75 18.5C12.75 17.2574 11.7426 16.25 10.5 16.25C9.25736 16.25 8.25 17.2574 8.25 18.5C8.25 19.7426 9.25736 20.75 10.5 20.75Z" fill="#FB883B"/>
<path d="M18 20.75C19.2426 20.75 20.25 19.7426 20.25 18.5C20.25 17.2574 19.2426 16.25 18 16.25C16.7574 16.25 15.75 17.2574 15.75 18.5C15.75 19.7426 16.7574 20.75 18 20.75Z" fill="#FB883B"/>
<path d="M25.5 20.75C26.7426 20.75 27.75 19.7426 27.75 18.5C27.75 17.2574 26.7426 16.25 25.5 16.25C24.2574 16.25 23.25 17.2574 23.25 18.5C23.25 19.7426 24.2574 20.75 25.5 20.75Z" fill="#FB883B"/>
</svg>
