<svg width="52" height="52" viewBox="0 0 52 52" fill="none" xmlns="http://www.w3.org/2000/svg">
<path d="M26 1L29.2851 5.25854L33.7254 2.22359L35.5338 7.28886L40.6946 5.77457L40.8492 11.1508L46.2254 11.3054L44.7111 16.4662L49.7764 18.2746L46.7415 22.7149L51 26L46.7415 29.2851L49.7764 33.7254L44.7111 35.5338L46.2254 40.6946L40.8492 40.8492L40.6946 46.2254L35.5338 44.7111L33.7254 49.7764L29.2851 46.7415L26 51L22.7149 46.7415L18.2746 49.7764L16.4662 44.7111L11.3054 46.2254L11.1508 40.8492L5.77457 40.6946L7.28886 35.5338L2.22359 33.7254L5.25854 29.2851L1 26L5.25854 22.7149L2.22359 18.2746L7.28886 16.4662L5.77457 11.3054L11.1508 11.1508L11.3054 5.77457L16.4662 7.28886L18.2746 2.22359L22.7149 5.25854L26 1Z" fill="url(#paint0_linear_365_12670)" stroke="black" stroke-linejoin="round"/>
<path d="M26.2243 22.4317H22.5843V21.0717H25.0043C25.4176 21.0717 25.7243 20.9851 25.9243 20.8117C26.1243 20.6317 26.2243 20.3317 26.2243 19.9117V18.8517H27.9243V32.7917H26.2243V22.4317Z" fill="white"/>
<defs>
<linearGradient id="paint0_linear_365_12670" x1="1" y1="1" x2="63.8116" y2="22.7209" gradientUnits="userSpaceOnUse">
<stop stop-color="#FD9D5D"/>
<stop offset="0.473958" stop-color="#FD2CA0"/>
<stop offset="1" stop-color="#3397FF"/>
</linearGradient>
</defs>
</svg>
