<svg width="52" height="52" viewBox="0 0 52 52" fill="none" xmlns="http://www.w3.org/2000/svg">
<path d="M26 1L29.2851 5.25854L33.7254 2.22359L35.5338 7.28886L40.6946 5.77457L40.8492 11.1508L46.2254 11.3054L44.7111 16.4662L49.7764 18.2746L46.7415 22.7149L51 26L46.7415 29.2851L49.7764 33.7254L44.7111 35.5338L46.2254 40.6946L40.8492 40.8492L40.6946 46.2254L35.5338 44.7111L33.7254 49.7764L29.2851 46.7415L26 51L22.7149 46.7415L18.2746 49.7764L16.4662 44.7111L11.3054 46.2254L11.1508 40.8492L5.77457 40.6946L7.28886 35.5338L2.22359 33.7254L5.25854 29.2851L1 26L5.25854 22.7149L2.22359 18.2746L7.28886 16.4662L5.77457 11.3054L11.1508 11.1508L11.3054 5.77457L16.4662 7.28886L18.2746 2.22359L22.7149 5.25854L26 1Z" fill="url(#paint0_linear_365_12678)" stroke="black" stroke-linejoin="round"/>
<path d="M25.9043 32.9517C24.9176 32.9517 24.0476 32.7684 23.2943 32.4017C22.541 32.0351 21.9576 31.5217 21.5443 30.8617C21.131 30.1951 20.9243 29.4251 20.9243 28.5517L22.6043 28.4517C22.6043 29.0317 22.741 29.5384 23.0143 29.9717C23.2943 30.3984 23.6876 30.7284 24.1943 30.9617C24.701 31.1951 25.291 31.3117 25.9643 31.3117C26.6176 31.3117 27.1876 31.2051 27.6743 30.9917C28.161 30.7784 28.5343 30.4717 28.7943 30.0717C29.0543 29.6717 29.1843 29.2051 29.1843 28.6717C29.1843 26.9784 27.831 26.1317 25.1243 26.1317V24.7917C26.0643 24.8051 26.8443 24.6317 27.4643 24.2717C28.091 23.9117 28.4043 23.3251 28.4043 22.5117C28.4043 22.0784 28.2976 21.6951 28.0843 21.3617C27.8776 21.0284 27.581 20.7717 27.1943 20.5917C26.8143 20.4051 26.3776 20.3117 25.8843 20.3117C25.3443 20.3117 24.8743 20.4151 24.4743 20.6217C24.0743 20.8217 23.7676 21.1051 23.5543 21.4717C23.341 21.8384 23.231 22.2584 23.2243 22.7317L21.5643 22.6317C21.5643 21.8651 21.751 21.1851 22.1243 20.5917C22.4976 19.9917 23.0143 19.5251 23.6743 19.1917C24.341 18.8584 25.0976 18.6917 25.9443 18.6917C26.7443 18.6917 27.4576 18.8484 28.0843 19.1617C28.7176 19.4751 29.211 19.9084 29.5643 20.4617C29.9243 21.0151 30.1043 21.6451 30.1043 22.3517C30.1043 23.0984 29.8876 23.7151 29.4543 24.2017C29.021 24.6884 28.451 25.0451 27.7443 25.2717C28.6443 25.4717 29.3876 25.8551 29.9743 26.4217C30.5676 26.9884 30.8643 27.7451 30.8643 28.6917C30.8643 29.5251 30.6543 30.2651 30.2343 30.9117C29.821 31.5517 29.2376 32.0517 28.4843 32.4117C27.731 32.7717 26.871 32.9517 25.9043 32.9517Z" fill="white"/>
<defs>
<linearGradient id="paint0_linear_365_12678" x1="1" y1="1" x2="63.8116" y2="22.7209" gradientUnits="userSpaceOnUse">
<stop stop-color="#FD9D5D"/>
<stop offset="0.473958" stop-color="#FD2CA0"/>
<stop offset="1" stop-color="#3397FF"/>
</linearGradient>
</defs>
</svg>
