<svg width="52" height="52" viewBox="0 0 52 52" fill="none" xmlns="http://www.w3.org/2000/svg">
<path d="M26 1L29.2851 5.25854L33.7254 2.22359L35.5338 7.28886L40.6946 5.77457L40.8492 11.1508L46.2254 11.3054L44.7111 16.4662L49.7764 18.2746L46.7415 22.7149L51 26L46.7415 29.2851L49.7764 33.7254L44.7111 35.5338L46.2254 40.6946L40.8492 40.8492L40.6946 46.2254L35.5338 44.7111L33.7254 49.7764L29.2851 46.7415L26 51L22.7149 46.7415L18.2746 49.7764L16.4662 44.7111L11.3054 46.2254L11.1508 40.8492L5.77457 40.6946L7.28886 35.5338L2.22359 33.7254L5.25854 29.2851L1 26L5.25854 22.7149L2.22359 18.2746L7.28886 16.4662L5.77457 11.3054L11.1508 11.1508L11.3054 5.77457L16.4662 7.28886L18.2746 2.22359L22.7149 5.25854L26 1Z" fill="url(#paint0_linear_365_12674)" stroke="black" stroke-linejoin="round"/>
<path d="M22.3943 30.6117C23.5743 29.7384 24.571 28.9451 25.3843 28.2317C26.2043 27.5184 26.9176 26.7084 27.5243 25.8017C28.1376 24.8884 28.4443 23.9584 28.4443 23.0117C28.4443 22.2051 28.2176 21.5617 27.7643 21.0817C27.3176 20.5951 26.6776 20.3517 25.8443 20.3517C24.931 20.3517 24.2343 20.6551 23.7543 21.2617C23.2743 21.8684 23.0243 22.6717 23.0043 23.6717L21.3443 23.5517C21.3443 22.6717 21.521 21.8651 21.8743 21.1317C22.2343 20.3917 22.7576 19.8051 23.4443 19.3717C24.1376 18.9317 24.9576 18.7117 25.9043 18.7117C26.731 18.7117 27.461 18.8884 28.0943 19.2417C28.7343 19.5884 29.2276 20.0851 29.5743 20.7317C29.9276 21.3717 30.1043 22.1117 30.1043 22.9517C30.1043 24.5251 29.5143 26.0051 28.3343 27.3917C27.1543 28.7717 25.621 30.0451 23.7343 31.2117H30.6643V32.7917H21.3643V31.3917L22.3943 30.6117Z" fill="white"/>
<defs>
<linearGradient id="paint0_linear_365_12674" x1="1" y1="1" x2="63.8116" y2="22.7209" gradientUnits="userSpaceOnUse">
<stop stop-color="#FD9D5D"/>
<stop offset="0.473958" stop-color="#FD2CA0"/>
<stop offset="1" stop-color="#3397FF"/>
</linearGradient>
</defs>
</svg>
