<svg width="818" height="558" viewBox="0 0 818 558" fill="none" xmlns="http://www.w3.org/2000/svg">
<path d="M287.334 243.86L262.958 268.227L286.359 244.835L310.736 220.468L287.334 243.86Z" fill="#898989" stroke="black" stroke-width="6" stroke-miterlimit="10" stroke-linecap="round" stroke-linejoin="round"/>
<path d="M248.332 212.748L223.955 237.115C238.698 246.355 250.36 255.673 262.958 268.266L287.334 243.899C274.736 231.267 263.075 221.949 248.332 212.748Z" fill="white" stroke="black" stroke-width="6" stroke-miterlimit="10" stroke-linecap="round" stroke-linejoin="round"/>
<path d="M248.332 212.748L223.955 237.115L235.968 204.639L260.344 180.272L248.332 212.748Z" fill="#898989" stroke="black" stroke-width="6" stroke-miterlimit="10" stroke-linecap="round" stroke-linejoin="round"/>
<path d="M310.736 220.468L287.334 243.86C274.736 231.267 263.075 221.949 248.332 212.709L260.344 180.272C279.144 192.007 294.667 204.444 310.736 220.468Z" fill="url(#paint0_linear_233_12766)" stroke="black" stroke-width="6" stroke-miterlimit="10" stroke-linecap="round" stroke-linejoin="round"/>
<path d="M267.248 272.672C267.365 272.828 267.521 272.945 267.677 273.101C268.34 273.803 269.003 274.504 269.666 275.206C269.822 275.362 269.978 275.557 270.134 275.713C270.641 276.259 271.187 276.844 271.694 277.389C271.85 277.584 272.045 277.779 272.201 277.935C272.825 278.637 273.449 279.339 274.073 280.041C274.151 280.119 274.229 280.197 274.307 280.313C274.853 280.937 275.4 281.561 275.946 282.224C276.102 282.419 276.297 282.614 276.453 282.809C276.96 283.432 277.506 284.056 278.013 284.641C278.091 284.758 278.208 284.836 278.286 284.953C278.871 285.655 279.456 286.395 280.041 287.097C280.197 287.292 280.353 287.487 280.509 287.643C280.977 288.228 281.445 288.774 281.874 289.359C282.03 289.553 282.147 289.709 282.303 289.904C282.849 290.606 283.434 291.347 283.98 292.049C284.097 292.166 284.175 292.322 284.292 292.439C284.76 293.062 285.189 293.647 285.657 294.271C285.813 294.466 285.969 294.661 286.125 294.895C286.632 295.597 287.139 296.298 287.646 296.961C287.685 297 287.685 297.039 287.724 297.078C288.231 297.819 288.777 298.56 289.284 299.3C289.441 299.495 289.558 299.69 289.714 299.924C290.143 300.509 290.533 301.133 290.923 301.718C291.04 301.873 291.157 302.029 291.235 302.185C291.742 302.926 292.21 303.667 292.717 304.408C292.834 304.564 292.951 304.759 293.029 304.914C293.419 305.499 293.809 306.123 294.199 306.708C294.316 306.903 294.472 307.098 294.589 307.332C295.057 308.072 295.525 308.852 295.993 309.593C296.032 309.671 296.071 309.71 296.11 309.788C296.539 310.49 296.929 311.191 297.358 311.893C297.475 312.088 297.592 312.322 297.748 312.517C298.138 313.18 298.489 313.804 298.84 314.466C298.918 314.583 298.996 314.739 299.074 314.856C299.503 315.636 299.932 316.377 300.361 317.157C300.478 317.351 300.556 317.546 300.673 317.741C300.985 318.365 301.336 318.989 301.648 319.574C301.765 319.769 301.843 319.964 301.96 320.159C302.35 320.938 302.779 321.718 303.169 322.498C303.247 322.615 303.286 322.771 303.364 322.888C303.677 323.472 303.95 324.096 304.262 324.681C304.574 325.344 304.886 325.968 305.198 326.63C305.354 326.942 305.51 327.293 305.666 327.605C306.056 328.463 306.446 329.321 306.836 330.139C306.914 330.256 306.953 330.412 307.031 330.529C307.46 331.504 307.889 332.518 308.318 333.492C308.435 333.804 308.552 334.077 308.708 334.389C309.02 335.091 309.293 335.792 309.566 336.494C309.722 336.884 309.878 337.235 310.034 337.625C310.307 338.249 310.541 338.911 310.775 339.574C310.931 339.964 311.087 340.354 311.243 340.783C311.477 341.446 311.711 342.069 311.945 342.732C312.101 343.122 312.218 343.512 312.374 343.902C312.608 344.604 312.881 345.305 313.115 346.007C313.232 346.358 313.349 346.67 313.466 347.021C313.817 348.073 314.168 349.126 314.519 350.179L338.896 325.812C338.545 324.759 338.194 323.706 337.843 322.654C337.726 322.303 337.609 321.991 337.492 321.64C337.258 320.938 336.985 320.237 336.751 319.535C336.595 319.145 336.478 318.755 336.322 318.365C336.088 317.702 335.854 317.079 335.62 316.416C335.464 316.026 335.308 315.636 335.152 315.207C334.918 314.544 334.645 313.921 334.411 313.258C334.255 312.868 334.099 312.517 333.943 312.127C333.67 311.425 333.358 310.724 333.085 310.022C332.968 309.71 332.851 309.437 332.695 309.125C332.266 308.111 331.836 307.137 331.407 306.162C331.329 306.045 331.29 305.889 331.212 305.772C330.822 304.914 330.432 304.057 330.042 303.238C329.886 302.887 329.73 302.575 329.574 302.263C329.262 301.601 328.95 300.977 328.638 300.314C328.56 300.158 328.482 300.002 328.443 299.885C328.209 299.417 328.014 298.988 327.78 298.521C327.702 298.404 327.663 298.248 327.585 298.131C327.195 297.351 326.805 296.571 326.376 295.791C326.259 295.597 326.181 295.402 326.064 295.207C325.752 294.583 325.401 293.959 325.089 293.374C324.972 293.179 324.894 292.984 324.777 292.789C324.348 292.01 323.919 291.269 323.49 290.489C323.412 290.372 323.334 290.216 323.256 290.099C322.905 289.437 322.515 288.813 322.164 288.15C322.047 287.916 321.93 287.721 321.774 287.526C321.345 286.824 320.955 286.123 320.526 285.421C320.487 285.343 320.448 285.304 320.409 285.226C319.941 284.485 319.473 283.705 319.005 282.965C318.888 282.77 318.732 282.575 318.615 282.341C318.225 281.717 317.835 281.132 317.444 280.547C317.327 280.391 317.21 280.197 317.132 280.041C316.664 279.3 316.157 278.559 315.65 277.818C315.533 277.662 315.416 277.506 315.338 277.35C314.948 276.766 314.519 276.142 314.129 275.557C313.973 275.362 313.856 275.167 313.7 274.933C313.193 274.192 312.686 273.452 312.14 272.711C312.101 272.672 312.101 272.633 312.062 272.594C311.555 271.892 311.048 271.19 310.541 270.528C310.385 270.333 310.229 270.138 310.073 269.904C309.605 269.28 309.176 268.695 308.708 268.071C308.591 267.954 308.513 267.799 308.396 267.682C307.85 266.98 307.304 266.239 306.719 265.537C306.563 265.342 306.446 265.186 306.29 264.991C305.822 264.407 305.393 263.861 304.925 263.276C304.769 263.081 304.613 262.886 304.457 262.73C303.872 262.028 303.286 261.288 302.701 260.586C302.623 260.469 302.506 260.391 302.428 260.274C301.921 259.65 301.375 259.026 300.868 258.442C300.712 258.247 300.517 258.052 300.361 257.857C299.815 257.233 299.269 256.609 298.723 255.946C298.645 255.868 298.567 255.79 298.489 255.673C297.865 254.972 297.241 254.27 296.617 253.568C296.461 253.373 296.266 253.178 296.11 253.022C295.603 252.477 295.096 251.892 294.55 251.346C294.394 251.19 294.238 250.995 294.082 250.839C293.419 250.137 292.756 249.435 292.093 248.734C291.976 248.578 291.82 248.461 291.664 248.305C291.118 247.72 290.572 247.135 289.987 246.589C289.792 246.394 289.597 246.2 289.401 246.005C288.699 245.303 288.036 244.601 287.334 243.899L262.958 268.266C263.66 268.968 264.362 269.67 265.025 270.372C265.22 270.567 265.415 270.762 265.61 270.957C266.156 271.502 266.702 272.087 267.248 272.672Z" fill="white" stroke="black" stroke-width="6" stroke-miterlimit="10" stroke-linecap="round" stroke-linejoin="round"/>
<path d="M377.119 326.435L352.742 350.802L314.363 350.257L338.74 325.89L377.119 326.435Z" fill="#898989" stroke="black" stroke-width="6" stroke-miterlimit="10" stroke-linecap="round" stroke-linejoin="round"/>
<path d="M310.736 220.468C327 236.726 340.261 253.178 351.26 270.723C362.259 288.267 370.722 306.513 377.119 326.396L338.74 325.89C328.833 295.09 312.491 269.007 287.334 243.86L310.736 220.468Z" fill="#FB883B" stroke="black" stroke-width="6" stroke-miterlimit="10" stroke-linecap="round" stroke-linejoin="round"/>
<path d="M338.74 325.89L314.363 350.257C324.27 381.057 324.621 406.905 315.455 431.584L339.832 407.217C348.959 382.538 348.608 356.69 338.74 325.89Z" fill="white" stroke="black" stroke-width="6" stroke-miterlimit="10" stroke-linecap="round" stroke-linejoin="round"/>
<path d="M378.523 431.467L354.146 455.834L315.455 431.623L339.832 407.256L378.523 431.467Z" fill="#898989" stroke="black" stroke-width="6" stroke-miterlimit="10" stroke-linecap="round" stroke-linejoin="round"/>
<path d="M377.118 326.435C383.515 346.358 386.752 364.487 386.986 381.914C387.22 399.342 384.451 415.56 378.562 431.506L339.871 407.256C349.037 382.577 348.686 356.729 338.779 325.929L377.118 326.435Z" fill="#00A99D" stroke="black" stroke-width="6" stroke-miterlimit="10" stroke-linecap="round" stroke-linejoin="round"/>
<path d="M245.835 211.189C245.562 211.033 245.328 210.877 245.055 210.721C244.47 210.37 243.846 210.019 243.261 209.668C242.988 209.513 242.715 209.357 242.442 209.201C241.779 208.811 241.155 208.46 240.492 208.07C240.297 207.953 240.102 207.836 239.946 207.758C239.127 207.29 238.269 206.822 237.45 206.355C237.255 206.238 237.021 206.121 236.826 206.004C236.202 205.653 235.539 205.302 234.915 204.99C234.642 204.834 234.369 204.717 234.096 204.561C233.511 204.249 232.887 203.937 232.302 203.625C232.068 203.508 231.794 203.353 231.56 203.236C230.741 202.807 229.883 202.378 229.064 201.988C228.986 201.949 228.908 201.91 228.83 201.871C228.05 201.481 227.309 201.13 226.529 200.779C226.256 200.662 226.022 200.545 225.749 200.428C225.164 200.156 224.579 199.883 223.955 199.61C223.682 199.493 223.409 199.376 223.136 199.259C222.473 198.947 221.771 198.635 221.108 198.362C220.952 198.284 220.796 198.206 220.64 198.167C219.821 197.816 219.002 197.465 218.144 197.115C217.91 197.037 217.715 196.92 217.48 196.842C216.856 196.569 216.232 196.335 215.608 196.101C215.335 195.984 215.062 195.867 214.789 195.789C214.165 195.555 213.58 195.321 212.956 195.087C212.722 195.009 212.488 194.892 212.254 194.814C211.435 194.502 210.616 194.19 209.797 193.918C209.68 193.879 209.563 193.84 209.446 193.801C208.744 193.528 208.042 193.294 207.34 193.06C207.067 192.982 206.833 192.865 206.56 192.787C205.975 192.592 205.39 192.397 204.805 192.202C204.532 192.124 204.298 192.046 204.025 191.929C203.323 191.695 202.62 191.5 201.918 191.266C201.801 191.227 201.684 191.188 201.567 191.149C200.748 190.916 199.929 190.643 199.11 190.409C198.876 190.331 198.642 190.292 198.408 190.214C197.823 190.058 197.199 189.863 196.614 189.707C196.341 189.629 196.068 189.551 195.795 189.473C195.171 189.317 194.586 189.161 193.962 189.005C193.728 188.966 193.533 188.888 193.299 188.849C192.48 188.654 191.7 188.459 190.881 188.264C190.725 188.225 190.569 188.186 190.413 188.147C189.75 187.992 189.087 187.836 188.423 187.719C188.15 187.68 187.916 187.602 187.643 187.563C187.058 187.446 186.512 187.329 185.927 187.212C185.693 187.173 185.42 187.095 185.186 187.056C184.445 186.9 183.743 186.783 183.002 186.666C182.924 186.666 182.846 186.627 182.807 186.627C182.105 186.51 181.403 186.393 180.74 186.276C180.662 186.276 180.584 186.237 180.506 186.237C179.531 186.081 178.517 185.925 177.542 185.808C177.464 185.808 177.386 185.769 177.269 185.769C176.372 185.652 175.475 185.535 174.577 185.457C174.265 185.418 173.953 185.379 173.641 185.34C172.978 185.262 172.315 185.223 171.652 185.145C171.301 185.106 170.95 185.067 170.599 185.067C169.936 185.028 169.312 184.95 168.649 184.912C168.337 184.873 167.986 184.873 167.674 184.834C166.894 184.795 166.114 184.756 165.334 184.717C165.139 184.717 164.983 184.717 164.788 184.678C163.852 184.639 162.877 184.639 161.941 184.6C161.668 184.6 161.434 184.6 161.161 184.6C160.458 184.6 159.795 184.6 159.093 184.6C158.742 184.6 158.43 184.6 158.079 184.6C157.455 184.6 156.831 184.639 156.207 184.639C155.856 184.639 155.544 184.678 155.193 184.678C154.53 184.717 153.867 184.756 153.204 184.795C152.931 184.795 152.658 184.834 152.385 184.834C151.449 184.912 150.552 184.989 149.616 185.067C149.499 185.067 149.343 185.106 149.226 185.106C148.446 185.184 147.666 185.262 146.886 185.379C146.574 185.418 146.3 185.457 145.988 185.496C145.364 185.574 144.779 185.652 144.155 185.73C143.843 185.769 143.492 185.808 143.18 185.886C142.556 185.964 141.971 186.081 141.386 186.198C141.074 186.237 140.801 186.315 140.489 186.354C139.748 186.51 139.007 186.627 138.227 186.783C138.11 186.822 137.954 186.822 137.837 186.861C136.979 187.056 136.082 187.251 135.224 187.446C134.99 187.524 134.717 187.563 134.483 187.641C133.859 187.797 133.274 187.953 132.65 188.108C132.338 188.186 132.025 188.264 131.752 188.342C131.206 188.498 130.621 188.654 130.075 188.849C129.763 188.927 129.49 189.044 129.178 189.122C128.554 189.317 127.969 189.512 127.345 189.707C127.111 189.785 126.877 189.863 126.682 189.941C125.863 190.214 125.044 190.526 124.225 190.838C124.069 190.916 123.913 190.955 123.757 191.033C123.094 191.266 122.431 191.539 121.807 191.812C121.534 191.929 121.261 192.046 120.988 192.163C120.442 192.397 119.896 192.631 119.389 192.865C119.116 192.982 118.804 193.138 118.531 193.255C117.985 193.489 117.438 193.762 116.931 193.996C116.658 194.113 116.424 194.229 116.151 194.346C115.449 194.697 114.747 195.048 114.045 195.438C113.967 195.477 113.928 195.516 113.85 195.555C113.07 195.945 112.329 196.374 111.588 196.803C111.354 196.92 111.12 197.076 110.925 197.193C110.418 197.504 109.872 197.816 109.365 198.128C109.092 198.284 108.819 198.44 108.585 198.635C108.078 198.947 107.61 199.259 107.142 199.571C106.908 199.727 106.635 199.883 106.401 200.078C105.855 200.428 105.309 200.818 104.802 201.169C104.607 201.286 104.451 201.403 104.256 201.559C103.553 202.066 102.851 202.573 102.149 203.08C101.993 203.197 101.837 203.314 101.681 203.43C101.135 203.859 100.628 204.249 100.082 204.678C99.8482 204.873 99.6142 205.068 99.3802 205.263C98.9122 205.653 98.4831 206.004 98.0541 206.394C97.8201 206.588 97.5861 206.822 97.3521 207.017C96.884 207.407 96.455 207.836 95.987 208.226C95.792 208.421 95.5579 208.616 95.3629 208.772C94.7389 209.357 94.0758 209.98 93.4518 210.604L69.0751 234.971C69.6991 234.347 70.3232 233.724 70.9862 233.139C71.1812 232.944 71.3762 232.749 71.6103 232.593C72.0393 232.164 72.5073 231.774 72.9753 231.384C73.2094 231.189 73.4434 230.956 73.6774 230.761C74.1064 230.371 74.5745 230.02 75.0035 229.63C75.2375 229.435 75.4715 229.24 75.7055 229.045C76.2126 228.616 76.7586 228.187 77.3047 227.798C77.4607 227.681 77.6167 227.564 77.7727 227.447C78.4747 226.94 79.1768 226.394 79.8788 225.926C80.0738 225.809 80.2299 225.692 80.4249 225.536C80.9709 225.146 81.4779 224.796 82.024 224.445C82.258 224.289 82.531 224.094 82.765 223.938C83.2331 223.626 83.7401 223.314 84.2081 223.002C84.4812 222.846 84.7152 222.69 84.9882 222.495C85.4952 222.183 86.0413 221.872 86.5483 221.56C86.7823 221.443 87.0163 221.287 87.2113 221.17C87.9524 220.741 88.7325 220.312 89.4735 219.922C89.5515 219.883 89.5905 219.844 89.6685 219.805C90.3706 219.454 91.0726 219.064 91.7747 218.714C92.0087 218.597 92.2817 218.48 92.5547 218.363C93.1008 218.09 93.6078 217.856 94.1538 217.622C94.4269 217.505 94.7389 217.349 95.0119 217.232C95.5579 216.998 96.065 216.764 96.611 216.53C96.884 216.413 97.157 216.296 97.4301 216.179C98.0931 215.906 98.7172 215.673 99.3802 215.4C99.5362 215.322 99.6922 215.283 99.8482 215.205C100.667 214.893 101.486 214.62 102.305 214.308C102.539 214.23 102.773 214.152 102.968 214.074C103.593 213.879 104.178 213.684 104.802 213.489C105.114 213.411 105.387 213.294 105.699 213.216C106.245 213.06 106.83 212.865 107.376 212.709C107.688 212.632 108 212.554 108.273 212.476C108.897 212.32 109.482 212.164 110.106 212.008C110.34 211.93 110.613 211.891 110.847 211.813C111.705 211.618 112.563 211.423 113.46 211.228C113.577 211.189 113.733 211.189 113.85 211.15C114.591 210.994 115.332 210.838 116.112 210.721C116.424 210.682 116.697 210.604 117.009 210.565C117.594 210.448 118.219 210.37 118.804 210.253C119.116 210.214 119.467 210.136 119.779 210.097C120.403 210.019 120.988 209.941 121.612 209.863C121.924 209.824 122.197 209.785 122.509 209.746C123.289 209.668 124.069 209.552 124.849 209.474C124.966 209.474 125.122 209.435 125.239 209.435C126.136 209.357 127.072 209.279 128.008 209.201C128.281 209.201 128.554 209.162 128.827 209.162C129.49 209.123 130.153 209.084 130.816 209.045C131.167 209.045 131.479 209.006 131.83 209.006C132.455 208.967 133.079 208.967 133.703 208.967C134.054 208.967 134.366 208.967 134.717 208.967C135.419 208.967 136.082 208.967 136.784 208.967C137.057 208.967 137.291 208.967 137.564 208.967C138.5 208.967 139.475 209.006 140.411 209.045C140.606 209.045 140.762 209.045 140.957 209.084C141.737 209.123 142.517 209.162 143.297 209.201C143.609 209.201 143.96 209.24 144.272 209.279C144.935 209.318 145.559 209.357 146.222 209.435C146.574 209.474 146.925 209.474 147.276 209.513C147.939 209.59 148.602 209.629 149.265 209.707C149.577 209.746 149.889 209.785 150.201 209.824C151.098 209.941 151.995 210.019 152.892 210.136C152.97 210.136 153.048 210.175 153.165 210.175C154.14 210.292 155.115 210.448 156.129 210.604C156.207 210.604 156.285 210.643 156.363 210.643C157.065 210.76 157.767 210.877 158.43 210.994C158.508 210.994 158.586 211.033 158.625 211.033C159.366 211.15 160.068 211.306 160.81 211.423C161.044 211.462 161.317 211.54 161.551 211.579C162.136 211.696 162.682 211.813 163.267 211.93C163.54 211.969 163.774 212.047 164.047 212.086C164.71 212.242 165.373 212.359 166.036 212.515C166.192 212.554 166.348 212.593 166.504 212.632C167.323 212.826 168.103 213.021 168.922 213.216C169.156 213.255 169.351 213.333 169.585 213.372C170.209 213.528 170.794 213.684 171.418 213.84C171.691 213.918 171.964 213.996 172.237 214.074C172.822 214.23 173.446 214.386 174.031 214.581C174.265 214.659 174.499 214.698 174.734 214.776C175.553 215.01 176.372 215.244 177.191 215.517C177.308 215.556 177.425 215.595 177.542 215.634C178.244 215.867 178.946 216.062 179.648 216.296C179.921 216.374 180.155 216.452 180.428 216.569C181.013 216.764 181.598 216.959 182.183 217.154C182.456 217.232 182.69 217.349 182.963 217.427C183.665 217.661 184.367 217.934 185.069 218.168C185.186 218.207 185.303 218.246 185.42 218.285C186.239 218.597 187.058 218.869 187.877 219.181C188.111 219.259 188.345 219.376 188.579 219.454C189.204 219.688 189.789 219.922 190.413 220.156C190.686 220.273 190.959 220.39 191.232 220.468C191.856 220.702 192.48 220.975 193.104 221.209C193.338 221.287 193.533 221.404 193.767 221.482C194.586 221.833 195.405 222.183 196.263 222.534C196.419 222.612 196.575 222.69 196.731 222.729C197.394 223.041 198.096 223.314 198.759 223.626C199.032 223.743 199.305 223.86 199.578 223.977C200.163 224.25 200.748 224.523 201.372 224.796C201.645 224.913 201.879 225.029 202.152 225.146C202.932 225.497 203.674 225.887 204.454 226.238C204.532 226.277 204.61 226.316 204.688 226.355C205.507 226.745 206.365 227.174 207.184 227.603C207.418 227.72 207.691 227.837 207.925 227.993C208.51 228.304 209.134 228.616 209.719 228.928C209.992 229.084 210.265 229.201 210.538 229.357C211.162 229.708 211.825 230.02 212.449 230.371C212.644 230.488 212.878 230.605 213.073 230.722C213.892 231.189 214.75 231.657 215.569 232.125C215.764 232.242 215.959 232.32 216.115 232.437C216.778 232.827 217.402 233.178 218.066 233.568C218.339 233.724 218.612 233.88 218.885 234.036C219.47 234.386 220.094 234.737 220.679 235.088C220.952 235.244 221.186 235.4 221.459 235.556C222.278 236.063 223.136 236.57 223.955 237.077L248.332 212.709C247.474 212.203 246.655 211.696 245.835 211.189Z" fill="white" stroke="black" stroke-width="6" stroke-miterlimit="10" stroke-linecap="round" stroke-linejoin="round"/>
<path d="M315.455 431.623C311.048 443.514 304.535 453.768 296.188 462.111L320.565 437.744C328.911 429.401 335.425 419.147 339.832 407.256L315.455 431.623Z" fill="white" stroke="black" stroke-width="6" stroke-miterlimit="10" stroke-linecap="round" stroke-linejoin="round"/>
<path d="M344.317 479.032C329.34 490.767 311.282 498.409 290.65 501.762C289.752 501.918 288.855 502.034 287.958 502.151C287.763 502.19 287.529 502.229 287.334 502.229C286.437 502.346 285.579 502.463 284.682 502.58C284.565 502.58 284.448 502.619 284.37 502.619C283.551 502.697 282.732 502.814 281.913 502.892C281.718 502.931 281.523 502.931 281.328 502.97C280.431 503.048 279.534 503.126 278.637 503.204C278.481 503.204 278.286 503.243 278.13 503.243C277.311 503.321 276.531 503.36 275.712 503.399C275.555 503.399 275.36 503.438 275.204 503.438C274.307 503.477 273.41 503.516 272.474 503.555C272.279 503.555 272.084 503.555 271.889 503.594C271.07 503.633 270.212 503.633 269.393 503.672C269.276 503.672 269.159 503.672 269.003 503.672C268.067 503.672 267.17 503.672 266.234 503.672C266 503.672 265.805 503.672 265.571 503.672C264.674 503.672 263.738 503.672 262.802 503.633C262.763 503.633 262.763 503.633 262.724 503.633C261.788 503.594 260.851 503.594 259.876 503.516C259.642 503.516 259.447 503.516 259.213 503.477C258.277 503.438 257.341 503.399 256.405 503.321C256.288 503.321 256.21 503.321 256.093 503.282C255.235 503.243 254.338 503.165 253.48 503.087C253.285 503.087 253.051 503.048 252.856 503.048C251.92 502.97 250.984 502.892 250.009 502.775C249.853 502.775 249.658 502.736 249.502 502.736C248.644 502.658 247.825 502.541 246.966 502.463C246.771 502.424 246.576 502.424 246.381 502.385C245.445 502.268 244.47 502.151 243.534 502.034C243.339 501.995 243.144 501.995 242.91 501.956C242.052 501.84 241.194 501.723 240.336 501.567C240.18 501.528 240.063 501.528 239.907 501.489C238.776 501.294 237.645 501.138 236.553 500.943C236.358 500.904 236.163 500.865 235.968 500.826C234.876 500.631 233.745 500.436 232.652 500.202C232.457 500.163 232.262 500.124 232.067 500.085C230.936 499.851 229.805 499.617 228.713 499.383C228.557 499.344 228.401 499.305 228.245 499.266C227.075 498.993 225.866 498.721 224.696 498.448C200.748 492.716 176.879 482.463 153.75 467.96C134.951 456.185 119.428 443.787 103.358 427.725L78.9817 452.092C95.0508 468.154 110.574 480.552 129.373 492.327C152.502 506.83 176.372 517.084 200.319 522.815C201.489 523.088 202.698 523.361 203.868 523.633C204.024 523.672 204.18 523.711 204.336 523.75C205.468 523.984 206.599 524.218 207.691 524.452C207.886 524.491 208.081 524.53 208.276 524.569C209.368 524.803 210.499 524.998 211.591 525.193C211.786 525.232 211.981 525.271 212.176 525.31C213.307 525.505 214.438 525.7 215.53 525.856C215.569 525.856 215.608 525.856 215.647 525.856C215.764 525.856 215.842 525.895 215.959 525.895C216.817 526.012 217.675 526.168 218.533 526.285C218.729 526.324 218.924 526.363 219.158 526.363C220.094 526.48 221.069 526.635 222.005 526.713C222.2 526.752 222.395 526.752 222.59 526.791C223.448 526.908 224.267 526.986 225.125 527.064C225.281 527.064 225.476 527.103 225.632 527.103C226.568 527.181 227.504 527.298 228.479 527.376C228.674 527.376 228.908 527.415 229.103 527.415C229.961 527.493 230.858 527.532 231.716 527.61C231.833 527.61 231.911 527.61 232.028 527.649C232.964 527.727 233.901 527.766 234.837 527.805C235.071 527.805 235.266 527.844 235.5 527.844C236.436 527.883 237.372 527.922 238.347 527.961C238.386 527.961 238.386 527.961 238.425 527.961C239.361 528 240.258 528 241.194 528C241.428 528 241.623 528 241.857 528C242.793 528 243.69 528 244.626 528C244.743 528 244.86 528 245.016 528C245.835 528 246.693 527.961 247.513 527.922C247.708 527.922 247.903 527.922 248.098 527.883C248.995 527.844 249.931 527.805 250.828 527.766C250.984 527.766 251.179 527.727 251.335 527.727C252.154 527.688 252.934 527.61 253.753 527.571C253.909 527.571 254.104 527.532 254.26 527.532C255.157 527.454 256.054 527.376 256.951 527.298C257.146 527.298 257.341 527.259 257.536 527.22C258.355 527.142 259.174 527.064 259.993 526.947C260.11 526.947 260.227 526.908 260.305 526.908C261.202 526.791 262.1 526.674 262.958 526.558C263.153 526.519 263.387 526.48 263.582 526.48C264.479 526.363 265.376 526.207 266.273 526.09C286.905 522.737 304.964 515.095 319.941 503.36C323.256 500.748 326.415 497.98 329.379 495.017L353.756 470.65C350.792 473.652 347.633 476.42 344.317 479.032Z" fill="white" stroke="black" stroke-width="6" stroke-miterlimit="10" stroke-linecap="round" stroke-linejoin="round"/>
<path d="M339.832 407.256C328.794 437.004 304.651 456.341 271.772 461.682C238.893 467.024 201.255 457.745 165.802 435.522C151.059 426.282 139.397 416.964 126.799 404.371L103.397 427.764C119.466 443.826 134.99 456.224 153.789 467.998C176.917 482.502 200.787 492.755 224.735 498.487C247.824 504.023 270.017 505.153 290.649 501.8C311.282 498.448 329.34 490.806 344.317 479.071C359.84 466.907 371.346 450.922 378.562 431.506L339.832 407.256Z" fill="#7B61FF" stroke="black" stroke-width="6" stroke-miterlimit="10" stroke-linecap="round" stroke-linejoin="round"/>
<path d="M103.397 427.764L79.0206 452.131L102.422 428.738L126.799 404.371L103.397 427.764Z" fill="#898989" stroke="black" stroke-width="6" stroke-miterlimit="10" stroke-linecap="round" stroke-linejoin="round"/>
<path d="M54.449 362.538C54.0589 361.797 53.6689 361.056 53.2789 360.315C53.1619 360.081 53.0059 359.809 52.8889 359.575C52.6158 359.068 52.3818 358.6 52.1088 358.093C51.9528 357.781 51.7968 357.508 51.6408 357.196C51.4068 356.768 51.1727 356.3 50.9777 355.871C50.8217 355.559 50.6657 355.247 50.5097 354.935C50.3147 354.506 50.0807 354.077 49.8857 353.649C49.7686 353.454 49.6906 353.22 49.5736 353.025C49.0276 351.894 48.4816 350.802 47.9745 349.672C47.9745 349.633 47.9355 349.633 47.9355 349.594C47.4285 348.502 46.9214 347.372 46.4144 346.28C46.3364 346.124 46.2584 345.929 46.1804 345.773C45.7124 344.681 45.2443 343.629 44.7763 342.537C44.6983 342.342 44.5813 342.108 44.5033 341.913C44.0352 340.822 43.6062 339.769 43.1382 338.677C43.0602 338.521 43.0212 338.366 42.9432 338.21C42.5141 337.118 42.0461 336.026 41.6171 334.935C41.5781 334.896 41.5781 334.818 41.5391 334.779C41.11 333.648 40.681 332.556 40.252 331.426C40.174 331.231 40.096 331.036 40.057 330.88C39.6669 329.788 39.2769 328.736 38.8869 327.644C38.8089 327.449 38.7309 327.254 38.6919 327.02C38.3018 325.929 37.9508 324.837 37.5608 323.745C37.5218 323.628 37.4828 323.511 37.4438 323.355C37.0928 322.264 36.7417 321.211 36.3907 320.119C36.3517 320.002 36.3127 319.886 36.2737 319.769C35.9227 318.677 35.6107 317.585 35.2986 316.455C35.2206 316.26 35.1816 316.065 35.1036 315.831C34.7916 314.739 34.4796 313.687 34.2066 312.595C34.1676 312.4 34.0895 312.205 34.0505 312.01C33.7385 310.879 33.4655 309.788 33.1925 308.657C33.1925 308.579 33.1535 308.501 33.1535 308.423C32.8805 307.332 32.6074 306.24 32.3734 305.148C32.3344 304.992 32.2954 304.836 32.2564 304.68C32.0224 303.589 31.7494 302.497 31.5154 301.406C31.4764 301.211 31.4374 300.977 31.3984 300.782C31.1643 299.69 30.9693 298.637 30.7353 297.546C30.6963 297.351 30.6573 297.195 30.6183 297C30.3843 295.869 30.1893 294.739 29.9943 293.608C26.055 270.645 26.562 249.007 31.5154 229.279C36.6637 208.85 46.3364 191.383 60.3384 177.426L35.9617 201.793C21.9597 215.789 12.287 233.217 7.13865 253.646C2.1853 273.374 1.67827 295.012 5.61755 317.975C5.81256 319.106 6.00757 320.236 6.24159 321.367C6.28059 321.562 6.3196 321.718 6.3586 321.913C6.55361 323.005 6.78763 324.057 7.02164 325.149C7.06065 325.344 7.09965 325.578 7.13865 325.773C7.37267 326.864 7.60669 327.956 7.8797 329.048C7.91871 329.204 7.95771 329.359 7.99671 329.515C8.23073 330.607 8.50375 331.699 8.77677 332.79C8.77677 332.868 8.81577 332.946 8.81577 333.024C9.08879 334.155 9.40081 335.247 9.67383 336.377C9.71283 336.572 9.79084 336.767 9.82984 336.962C10.1419 338.054 10.4149 339.106 10.7269 340.198C10.7659 340.393 10.8439 340.588 10.9219 340.822C11.2339 341.913 11.585 343.005 11.897 344.136C11.936 344.253 11.975 344.37 12.014 344.487C12.365 345.578 12.677 346.631 13.0671 347.722C13.1061 347.839 13.1451 347.956 13.1841 348.112C13.5351 349.204 13.9251 350.296 14.3152 351.387C14.3932 351.582 14.4712 351.777 14.5102 352.011C14.9002 353.103 15.2902 354.155 15.6803 355.247C15.7583 355.442 15.8363 355.637 15.8753 355.793C16.3043 356.924 16.6943 358.015 17.1624 359.146C17.2014 359.185 17.2014 359.263 17.2404 359.302C17.6694 360.393 18.0984 361.485 18.5665 362.577C18.6445 362.733 18.6835 362.889 18.7615 363.045C19.1905 364.136 19.6585 365.228 20.1266 366.28C20.2046 366.475 20.3216 366.709 20.3996 366.904C20.8676 367.996 21.3357 369.049 21.8037 370.14C21.8817 370.296 21.9597 370.491 22.0377 370.647C22.5447 371.739 23.0518 372.869 23.5588 373.961C23.5588 374 23.5978 374 23.5978 374.039C24.1048 375.17 24.6509 376.261 25.1969 377.392C25.2359 377.509 25.3139 377.626 25.3529 377.743C25.3919 377.86 25.4699 377.938 25.5089 378.055C25.704 378.483 25.938 378.912 26.133 379.341C26.289 379.653 26.445 379.965 26.601 380.277C26.835 380.706 27.0691 381.174 27.2641 381.602C27.4201 381.914 27.5761 382.187 27.7321 382.499C27.9661 383.006 28.2391 383.474 28.5122 383.981C28.6292 384.215 28.7852 384.488 28.9022 384.721C29.2922 385.462 29.6822 386.203 30.0723 386.944C42.7482 410.414 59.2073 432.364 78.9817 452.131L103.358 427.763C83.584 407.958 67.1249 386.047 54.449 362.538Z" fill="white" stroke="black" stroke-width="6" stroke-miterlimit="10" stroke-linecap="round" stroke-linejoin="round"/>
<path d="M149.187 144.014C113.538 143.546 82.8822 155.125 60.4556 177.543C46.4536 191.539 36.7809 208.967 31.6325 229.396C26.6792 249.124 26.1722 270.761 30.1114 293.725C34.0507 316.689 42.2413 339.847 54.4882 362.499C67.164 385.969 83.6232 407.919 103.398 427.686L126.799 404.293C64.1998 341.718 49.3008 254.816 93.5299 210.565C128.944 175.165 189.711 175.983 248.332 212.67L260.345 180.272C223.253 157.035 184.835 144.52 149.187 144.014Z" fill="url(#paint1_linear_233_12766)" stroke="black" stroke-width="6" stroke-miterlimit="10" stroke-linecap="round" stroke-linejoin="round"/>
<path d="M373.653 143H372.806L372.085 143.443L274.363 203.386L271.806 204.954L273.374 207.511L276.511 212.626L278.08 215.183L280.637 213.614L376.194 155H506.5H509.5V152V146V143H506.5H373.653Z" fill="url(#paint2_linear_233_12766)" stroke="black" stroke-width="6"/>
<path d="M374.006 255H373.511L373.043 255.159L341.575 265.817L338.734 266.78L339.696 269.621L341.621 275.304L342.583 278.145L345.425 277.183L375.489 267H506.5H509.5V264V258V255H506.5H374.006Z" fill="#FB883B" stroke="black" stroke-width="6"/>
<path d="M367.66 378.305L366.643 381.127L369.465 382.144L412.958 397.822L413.452 398H413.976H506.5H509.5V395V389V386H506.5H415.548L373.535 370.855L370.712 369.838L369.695 372.66L367.66 378.305Z" fill="#00A99D" stroke="black" stroke-width="6"/>
<path d="M327.361 470.932L325.757 473.467L328.293 475.071L412.027 528.035L412.762 528.5H413.631H506.5H509.5V525.5V519.5V516.5H506.5H416.238L334.707 464.929L332.172 463.326L330.568 465.861L327.361 470.932Z" fill="#7B61FF" stroke="black" stroke-width="6"/>
<path d="M373.679 30H372.859L372.153 30.4176L165.946 152.335L163.364 153.862L164.891 156.444L167.944 161.609L169.471 164.192L172.054 162.665L376.141 42H506.5H509.5V39V33V30H506.5H373.679Z" fill="url(#paint3_linear_233_12766)" stroke="black" stroke-width="6"/>
<circle cx="166" cy="160" r="11" fill="white" stroke="black" stroke-width="6"/>
<circle cx="275" cy="209" r="11" fill="white" stroke="black" stroke-width="6"/>
<circle cx="338" cy="273" r="11" fill="white" stroke="black" stroke-width="6"/>
<circle cx="369" cy="379" r="11" fill="white" stroke="black" stroke-width="6"/>
<circle cx="330" cy="467" r="11" fill="white" stroke="black" stroke-width="6"/>
<rect x="507" y="116" width="132" height="65" rx="10" fill="url(#paint4_linear_233_12766)"/>
<path d="M528.51 155.01H538.5L537.57 159H522.42L527.01 139.2H532.17L528.51 155.01ZM540.496 159L545.086 139.2H552.526C554.886 139.2 556.726 139.73 558.046 140.79C559.386 141.85 560.056 143.3 560.056 145.14C560.056 146.58 559.706 147.86 559.006 148.98C558.326 150.08 557.346 150.95 556.066 151.59C554.786 152.21 553.276 152.52 551.536 152.52H547.156L545.656 159H540.496ZM551.956 143.07H549.346L548.056 148.65H551.386C552.546 148.65 553.426 148.34 554.026 147.72C554.646 147.1 554.956 146.37 554.956 145.53C554.956 144.77 554.716 144.17 554.236 143.73C553.756 143.29 552.996 143.07 551.956 143.07Z" fill="white"/>
<path opacity="0.5" d="M584.72 159.33C583.1 159.33 581.7 159.01 580.52 158.37C579.34 157.71 578.43 156.79 577.79 155.61C577.15 154.41 576.83 152.98 576.83 151.32C576.83 149.68 577.04 148.12 577.46 146.64C577.88 145.16 578.51 143.85 579.35 142.71C580.19 141.55 581.23 140.64 582.47 139.98C583.73 139.32 585.19 138.99 586.85 138.99C588.65 138.99 590.14 139.41 591.32 140.25C592.52 141.09 593.26 142.27 593.54 143.79L589.16 145.5C589.12 144.76 588.86 144.17 588.38 143.73C587.9 143.27 587.27 143.04 586.49 143.04C585.49 143.04 584.65 143.36 583.97 144C583.31 144.64 582.79 145.44 582.41 146.4C582.05 147.36 581.81 148.34 581.69 149.34C582.09 148.56 582.73 147.96 583.61 147.54C584.51 147.1 585.47 146.88 586.49 146.88C588.15 146.88 589.49 147.36 590.51 148.32C591.55 149.28 592.07 150.57 592.07 152.19C592.07 153.59 591.76 154.83 591.14 155.91C590.54 156.97 589.69 157.81 588.59 158.43C587.49 159.03 586.2 159.33 584.72 159.33ZM584.6 155.55C585.5 155.55 586.18 155.26 586.64 154.68C587.12 154.1 587.36 153.39 587.36 152.55C587.36 151.81 587.11 151.23 586.61 150.81C586.13 150.39 585.48 150.18 584.66 150.18C583.76 150.18 583.06 150.47 582.56 151.05C582.08 151.61 581.84 152.26 581.84 153C581.84 153.8 582.1 154.43 582.62 154.89C583.14 155.33 583.8 155.55 584.6 155.55ZM600.756 150.18C599.196 150.18 597.946 149.72 597.006 148.8C596.066 147.88 595.596 146.66 595.596 145.14C595.596 143.98 595.856 142.93 596.376 141.99C596.896 141.05 597.606 140.3 598.506 139.74C599.406 139.18 600.436 138.9 601.596 138.9C603.156 138.9 604.406 139.36 605.346 140.28C606.306 141.2 606.786 142.42 606.786 143.94C606.786 145.1 606.526 146.15 606.006 147.09C605.486 148.03 604.766 148.78 603.846 149.34C602.946 149.9 601.916 150.18 600.756 150.18ZM597.156 159L615.786 139.17H620.046L601.446 159H597.156ZM600.936 146.76C601.576 146.76 602.086 146.48 602.466 145.92C602.846 145.36 603.036 144.74 603.036 144.06C603.036 143.52 602.886 143.1 602.586 142.8C602.306 142.48 601.926 142.32 601.446 142.32C600.766 142.32 600.246 142.6 599.886 143.16C599.526 143.72 599.346 144.34 599.346 145.02C599.346 145.56 599.486 145.99 599.766 146.31C600.066 146.61 600.456 146.76 600.936 146.76ZM615.636 159.27C614.096 159.27 612.846 158.81 611.886 157.89C610.946 156.97 610.476 155.76 610.476 154.26C610.476 153.08 610.736 152.02 611.256 151.08C611.776 150.14 612.486 149.39 613.386 148.83C614.286 148.27 615.316 147.99 616.476 147.99C618.036 147.99 619.286 148.45 620.226 149.37C621.186 150.29 621.666 151.51 621.666 153.03C621.666 154.19 621.406 155.25 620.886 156.21C620.366 157.15 619.646 157.9 618.726 158.46C617.826 159 616.796 159.27 615.636 159.27ZM615.816 155.85C616.456 155.85 616.966 155.58 617.346 155.04C617.726 154.48 617.916 153.85 617.916 153.15C617.916 152.63 617.766 152.21 617.466 151.89C617.186 151.57 616.806 151.41 616.326 151.41C615.646 151.41 615.126 151.69 614.766 152.25C614.406 152.81 614.226 153.44 614.226 154.14C614.226 154.66 614.366 155.08 614.646 155.4C614.926 155.7 615.316 155.85 615.816 155.85Z" fill="white"/>
<rect x="507" y="116" width="132" height="65" rx="10" stroke="black" stroke-width="6"/>
<rect x="507" y="3" width="274" height="65" rx="10" fill="url(#paint5_linear_233_12766)"/>
<path d="M531.66 46.27C530.18 46.27 528.84 45.93 527.64 45.25C526.46 44.55 525.52 43.56 524.82 42.28C524.12 41 523.77 39.47 523.77 37.69C523.77 36.09 524 34.58 524.46 33.16C524.94 31.74 525.64 30.49 526.56 29.41C527.5 28.31 528.64 27.45 529.98 26.83C531.34 26.21 532.9 25.9 534.66 25.9C536.84 25.9 538.69 26.43 540.21 27.49C541.73 28.53 542.65 30.06 542.97 32.08L538.11 33.01C537.97 32.01 537.6 31.25 537 30.73C536.4 30.21 535.58 29.95 534.54 29.95C533.42 29.95 532.44 30.28 531.6 30.94C530.76 31.6 530.11 32.49 529.65 33.61C529.19 34.73 528.96 35.96 528.96 37.3C528.96 38.86 529.31 40.1 530.01 41.02C530.73 41.92 531.82 42.37 533.28 42.37C534.42 42.37 535.33 42.11 536.01 41.59C536.71 41.05 537.19 40.36 537.45 39.52L537.69 38.86H532.95L533.73 35.44H542.55L539.91 46H536.49L536.97 43.72C536.39 44.56 535.66 45.2 534.78 45.64C533.92 46.06 532.88 46.27 531.66 46.27ZM550.195 29.26C549.315 29.26 548.625 29.08 548.125 28.72C547.645 28.36 547.455 27.78 547.555 26.98C547.655 26.06 547.965 25.4 548.485 25C549.005 24.58 549.735 24.37 550.675 24.37C551.595 24.37 552.295 24.56 552.775 24.94C553.255 25.3 553.445 25.86 553.345 26.62C553.245 27.6 552.925 28.29 552.385 28.69C551.865 29.07 551.135 29.26 550.195 29.26ZM552.055 31L548.575 46H543.475L546.955 31H552.055ZM564.717 31H570.447L561.687 46H555.567L553.707 31H558.747L559.257 42.73L564.717 31ZM577.393 46.27C575.913 46.27 574.613 45.99 573.493 45.43C572.373 44.87 571.503 44.08 570.883 43.06C570.263 42.04 569.953 40.84 569.953 39.46C569.953 37.78 570.293 36.28 570.973 34.96C571.673 33.64 572.653 32.61 573.913 31.87C575.193 31.11 576.713 30.73 578.473 30.73C580.653 30.73 582.343 31.34 583.543 32.56C584.763 33.76 585.373 35.38 585.373 37.42C585.373 37.8 585.353 38.2 585.313 38.62C585.273 39.04 585.193 39.45 585.073 39.85H574.693C574.713 40.79 574.993 41.51 575.533 42.01C576.073 42.49 576.763 42.73 577.603 42.73C578.323 42.73 578.903 42.57 579.343 42.25C579.783 41.91 580.123 41.49 580.363 40.99L584.563 42.64C584.023 43.78 583.113 44.67 581.833 45.31C580.553 45.95 579.073 46.27 577.393 46.27ZM578.353 34.27C577.433 34.27 576.713 34.55 576.193 35.11C575.673 35.65 575.293 36.31 575.053 37.09H580.483C580.503 36.95 580.513 36.78 580.513 36.58C580.513 35.82 580.313 35.25 579.913 34.87C579.513 34.47 578.993 34.27 578.353 34.27ZM592.485 46.27C590.985 46.27 589.735 45.75 588.735 44.71C587.755 43.67 587.265 42.18 587.265 40.24C587.265 39.04 587.435 37.87 587.775 36.73C588.115 35.59 588.605 34.57 589.245 33.67C589.905 32.75 590.685 32.03 591.585 31.51C592.505 30.97 593.535 30.7 594.675 30.7C595.675 30.7 596.585 30.97 597.405 31.51C598.245 32.05 598.785 32.93 599.025 34.15L599.745 31H604.845L601.365 46H596.745L597.255 43.18C596.775 44.14 596.115 44.9 595.275 45.46C594.435 46 593.505 46.27 592.485 46.27ZM594.705 42.55C595.385 42.55 595.975 42.28 596.475 41.74C596.995 41.18 597.405 40.49 597.705 39.67C598.005 38.85 598.155 38.02 598.155 37.18C598.155 36.34 597.945 35.68 597.525 35.2C597.125 34.7 596.565 34.45 595.845 34.45C595.105 34.45 594.465 34.73 593.925 35.29C593.405 35.85 593.005 36.54 592.725 37.36C592.445 38.16 592.305 38.93 592.305 39.67C592.305 40.59 592.505 41.3 592.905 41.8C593.305 42.3 593.905 42.55 594.705 42.55ZM607.49 46L606.68 31H611.66L611.75 41.83L616.94 31H621.98L622.58 41.89L627.47 31H632.87L625.1 46H619.04L618.38 36.76L613.7 46H607.49ZM637.72 46.27C636.22 46.27 634.97 45.75 633.97 44.71C632.99 43.67 632.5 42.18 632.5 40.24C632.5 39.04 632.67 37.87 633.01 36.73C633.35 35.59 633.84 34.57 634.48 33.67C635.14 32.75 635.92 32.03 636.82 31.51C637.74 30.97 638.77 30.7 639.91 30.7C640.91 30.7 641.82 30.97 642.64 31.51C643.48 32.05 644.02 32.93 644.26 34.15L644.98 31H650.08L646.6 46H641.98L642.49 43.18C642.01 44.14 641.35 44.9 640.51 45.46C639.67 46 638.74 46.27 637.72 46.27ZM639.94 42.55C640.62 42.55 641.21 42.28 641.71 41.74C642.23 41.18 642.64 40.49 642.94 39.67C643.24 38.85 643.39 38.02 643.39 37.18C643.39 36.34 643.18 35.68 642.76 35.2C642.36 34.7 641.8 34.45 641.08 34.45C640.34 34.45 639.7 34.73 639.16 35.29C638.64 35.85 638.24 36.54 637.96 37.36C637.68 38.16 637.54 38.93 637.54 39.67C637.54 40.59 637.74 41.3 638.14 41.8C638.54 42.3 639.14 42.55 639.94 42.55ZM651.435 52.45C650.575 52.45 649.785 52.35 649.065 52.15C648.345 51.97 647.775 51.72 647.355 51.4L648.765 47.83C649.465 48.41 650.325 48.7 651.345 48.7C652.465 48.7 653.325 48.24 653.925 47.32L654.525 46.33L651.885 31H657.045L657.495 39.07L657.615 42.73L659.325 39.16L663.285 31H668.715L659.055 47.26C657.955 49.12 656.825 50.45 655.665 51.25C654.505 52.05 653.095 52.45 651.435 52.45ZM674.698 46.33C673.078 46.33 671.548 46 670.108 45.34C668.688 44.66 667.598 43.73 666.838 42.55L669.508 40.12C670.028 40.94 670.708 41.61 671.548 42.13C672.388 42.63 673.278 42.88 674.218 42.88C675.518 42.88 676.168 42.51 676.168 41.77C676.168 41.23 675.748 40.83 674.908 40.57L673.108 40.03C671.608 39.55 670.528 38.96 669.868 38.26C669.228 37.54 668.908 36.66 668.908 35.62C668.908 34.1 669.498 32.9 670.678 32.02C671.878 31.14 673.448 30.7 675.388 30.7C676.948 30.7 678.328 30.97 679.528 31.51C680.748 32.05 681.708 32.81 682.408 33.79L679.858 36.31C679.438 35.69 678.838 35.17 678.058 34.75C677.298 34.33 676.478 34.12 675.598 34.12C674.338 34.12 673.708 34.48 673.708 35.2C673.708 35.5 673.838 35.74 674.098 35.92C674.378 36.08 674.708 36.22 675.088 36.34L677.938 37.21C678.998 37.55 679.808 38.06 680.368 38.74C680.948 39.4 681.238 40.2 681.238 41.14C681.238 42.74 680.658 44.01 679.498 44.95C678.338 45.87 676.738 46.33 674.698 46.33Z" fill="white"/>
<path opacity="0.5" d="M706.64 46L707.63 41.65H698.45L699.26 38.11C699.64 37.59 700.04 37.08 700.46 36.58C700.88 36.08 701.31 35.57 701.75 35.05L709.55 26.2H715.76L713 38.11H716.45L715.64 41.65H712.19L711.17 46H706.64ZM703.22 38.11H708.44L710.42 29.95L705.5 35.65C705.14 36.07 704.77 36.48 704.39 36.88C704.01 37.28 703.62 37.69 703.22 38.11ZM725.536 46L726.526 41.65H717.346L718.156 38.11C718.536 37.59 718.936 37.08 719.356 36.58C719.776 36.08 720.206 35.57 720.646 35.05L728.446 26.2H734.656L731.896 38.11H735.346L734.536 41.65H731.086L730.066 46H725.536ZM722.116 38.11H727.336L729.316 29.95L724.396 35.65C724.036 36.07 723.666 36.48 723.286 36.88C722.906 37.28 722.516 37.69 722.116 38.11ZM743.502 37.18C741.942 37.18 740.692 36.72 739.752 35.8C738.812 34.88 738.342 33.66 738.342 32.14C738.342 30.98 738.602 29.93 739.122 28.99C739.642 28.05 740.352 27.3 741.252 26.74C742.152 26.18 743.182 25.9 744.342 25.9C745.902 25.9 747.152 26.36 748.092 27.28C749.052 28.2 749.532 29.42 749.532 30.94C749.532 32.1 749.272 33.15 748.752 34.09C748.232 35.03 747.512 35.78 746.592 36.34C745.692 36.9 744.662 37.18 743.502 37.18ZM739.902 46L758.532 26.17H762.792L744.192 46H739.902ZM743.682 33.76C744.322 33.76 744.832 33.48 745.212 32.92C745.592 32.36 745.782 31.74 745.782 31.06C745.782 30.52 745.632 30.1 745.332 29.8C745.052 29.48 744.672 29.32 744.192 29.32C743.512 29.32 742.992 29.6 742.632 30.16C742.272 30.72 742.092 31.34 742.092 32.02C742.092 32.56 742.232 32.99 742.512 33.31C742.812 33.61 743.202 33.76 743.682 33.76ZM758.382 46.27C756.842 46.27 755.592 45.81 754.632 44.89C753.692 43.97 753.222 42.76 753.222 41.26C753.222 40.08 753.482 39.02 754.002 38.08C754.522 37.14 755.232 36.39 756.132 35.83C757.032 35.27 758.062 34.99 759.222 34.99C760.782 34.99 762.032 35.45 762.972 36.37C763.932 37.29 764.412 38.51 764.412 40.03C764.412 41.19 764.152 42.25 763.632 43.21C763.112 44.15 762.392 44.9 761.472 45.46C760.572 46 759.542 46.27 758.382 46.27ZM758.562 42.85C759.202 42.85 759.712 42.58 760.092 42.04C760.472 41.48 760.662 40.85 760.662 40.15C760.662 39.63 760.512 39.21 760.212 38.89C759.932 38.57 759.552 38.41 759.072 38.41C758.392 38.41 757.872 38.69 757.512 39.25C757.152 39.81 756.972 40.44 756.972 41.14C756.972 41.66 757.112 42.08 757.392 42.4C757.672 42.7 758.062 42.85 758.562 42.85Z" fill="white"/>
<rect x="507" y="3" width="274" height="65" rx="10" stroke="black" stroke-width="6"/>
<rect x="507" y="229" width="190" height="65" rx="10" fill="#FB883B"/>
<path d="M543.57 252.2L542.64 256.19H536.25L532.59 272H527.43L531.09 256.19H524.64L525.57 252.2H543.57ZM547.833 272.27C546.353 272.27 545.053 271.99 543.933 271.43C542.813 270.87 541.943 270.08 541.323 269.06C540.703 268.04 540.393 266.84 540.393 265.46C540.393 263.78 540.733 262.28 541.413 260.96C542.113 259.64 543.093 258.61 544.353 257.87C545.633 257.11 547.153 256.73 548.913 256.73C551.093 256.73 552.783 257.34 553.983 258.56C555.203 259.76 555.813 261.38 555.813 263.42C555.813 263.8 555.793 264.2 555.753 264.62C555.713 265.04 555.633 265.45 555.513 265.85H545.133C545.153 266.79 545.433 267.51 545.973 268.01C546.513 268.49 547.203 268.73 548.043 268.73C548.763 268.73 549.343 268.57 549.783 268.25C550.223 267.91 550.563 267.49 550.803 266.99L555.003 268.64C554.463 269.78 553.553 270.67 552.273 271.31C550.993 271.95 549.513 272.27 547.833 272.27ZM548.793 260.27C547.873 260.27 547.153 260.55 546.633 261.11C546.113 261.65 545.733 262.31 545.493 263.09H550.923C550.943 262.95 550.953 262.78 550.953 262.58C550.953 261.82 550.753 261.25 550.353 260.87C549.953 260.47 549.433 260.27 548.793 260.27ZM562.925 272.27C561.425 272.27 560.175 271.75 559.175 270.71C558.195 269.67 557.705 268.18 557.705 266.24C557.705 265.04 557.875 263.87 558.215 262.73C558.555 261.59 559.045 260.57 559.685 259.67C560.345 258.75 561.125 258.03 562.025 257.51C562.945 256.97 563.975 256.7 565.115 256.7C566.115 256.7 567.025 256.97 567.845 257.51C568.685 258.05 569.225 258.93 569.465 260.15L570.185 257H575.285L571.805 272H567.185L567.695 269.18C567.215 270.14 566.555 270.9 565.715 271.46C564.875 272 563.945 272.27 562.925 272.27ZM565.145 268.55C565.825 268.55 566.415 268.28 566.915 267.74C567.435 267.18 567.845 266.49 568.145 265.67C568.445 264.85 568.595 264.02 568.595 263.18C568.595 262.34 568.385 261.68 567.965 261.2C567.565 260.7 567.005 260.45 566.285 260.45C565.545 260.45 564.905 260.73 564.365 261.29C563.845 261.85 563.445 262.54 563.165 263.36C562.885 264.16 562.745 264.93 562.745 265.67C562.745 266.59 562.945 267.3 563.345 267.8C563.745 268.3 564.345 268.55 565.145 268.55ZM575.32 272L578.8 257H583.33L582.88 259.88C583.42 258.86 584.15 258.08 585.07 257.54C585.99 256.98 587.03 256.7 588.19 256.7C589.33 256.7 590.27 256.98 591.01 257.54C591.77 258.1 592.25 258.89 592.45 259.91C593.03 258.87 593.78 258.08 594.7 257.54C595.64 256.98 596.68 256.7 597.82 256.7C598.88 256.7 599.78 256.94 600.52 257.42C601.26 257.88 601.77 258.55 602.05 259.43C602.33 260.29 602.33 261.33 602.05 262.55L599.86 272H594.76L596.83 263.18C597.01 262.38 596.94 261.75 596.62 261.29C596.32 260.83 595.83 260.6 595.15 260.6C594.37 260.6 593.73 260.86 593.23 261.38C592.73 261.9 592.35 262.65 592.09 263.63L590.14 272H585.04L587.11 263.18C587.29 262.38 587.22 261.75 586.9 261.29C586.6 260.83 586.11 260.6 585.43 260.6C584.61 260.6 583.94 260.89 583.42 261.47C582.92 262.03 582.55 262.84 582.31 263.9L580.42 272H575.32Z" fill="white"/>
<path opacity="0.5" d="M622.66 272L625.24 260.84C625.38 260.24 625.52 259.66 625.66 259.1C625.82 258.52 626 257.94 626.2 257.36C625.5 257.92 624.66 258.43 623.68 258.89C622.7 259.33 621.78 259.62 620.92 259.76L621.52 255.38C622.18 255.24 622.92 255 623.74 254.66C624.58 254.32 625.39 253.93 626.17 253.49C626.97 253.05 627.63 252.62 628.15 252.2H632.23L627.64 272H622.66ZM640.954 272.3C638.514 272.3 636.664 271.6 635.404 270.2C634.144 268.78 633.514 266.89 633.514 264.53C633.514 263.93 633.544 263.34 633.604 262.76C633.664 262.16 633.754 261.56 633.874 260.96C634.234 259.32 634.774 257.82 635.494 256.46C636.214 255.08 637.184 253.97 638.404 253.13C639.624 252.29 641.164 251.87 643.024 251.87C645.404 251.87 647.214 252.58 648.454 254C649.714 255.4 650.344 257.29 650.344 259.67C650.344 260.25 650.314 260.83 650.254 261.41C650.194 261.99 650.104 262.58 649.984 263.18C649.644 264.82 649.114 266.33 648.394 267.71C647.674 269.09 646.704 270.2 645.484 271.04C644.284 271.88 642.774 272.3 640.954 272.3ZM641.014 268.25C642.014 268.25 642.814 267.78 643.414 266.84C644.034 265.88 644.564 264.52 645.004 262.76C645.184 262.04 645.314 261.38 645.394 260.78C645.494 260.18 645.544 259.64 645.544 259.16C645.544 258.04 645.314 257.22 644.854 256.7C644.414 256.16 643.774 255.89 642.934 255.89C641.894 255.89 641.054 256.37 640.414 257.33C639.794 258.29 639.264 259.66 638.824 261.44C638.464 262.8 638.284 263.99 638.284 265.01C638.284 266.15 638.534 266.98 639.034 267.5C639.534 268 640.194 268.25 641.014 268.25ZM658.702 263.18C657.142 263.18 655.892 262.72 654.952 261.8C654.012 260.88 653.542 259.66 653.542 258.14C653.542 256.98 653.802 255.93 654.322 254.99C654.842 254.05 655.552 253.3 656.452 252.74C657.352 252.18 658.382 251.9 659.542 251.9C661.102 251.9 662.352 252.36 663.292 253.28C664.252 254.2 664.732 255.42 664.732 256.94C664.732 258.1 664.472 259.15 663.952 260.09C663.432 261.03 662.712 261.78 661.792 262.34C660.892 262.9 659.862 263.18 658.702 263.18ZM655.102 272L673.732 252.17H677.992L659.392 272H655.102ZM658.882 259.76C659.522 259.76 660.032 259.48 660.412 258.92C660.792 258.36 660.982 257.74 660.982 257.06C660.982 256.52 660.832 256.1 660.532 255.8C660.252 255.48 659.872 255.32 659.392 255.32C658.712 255.32 658.192 255.6 657.832 256.16C657.472 256.72 657.292 257.34 657.292 258.02C657.292 258.56 657.432 258.99 657.712 259.31C658.012 259.61 658.402 259.76 658.882 259.76ZM673.582 272.27C672.042 272.27 670.792 271.81 669.832 270.89C668.892 269.97 668.422 268.76 668.422 267.26C668.422 266.08 668.682 265.02 669.202 264.08C669.722 263.14 670.432 262.39 671.332 261.83C672.232 261.27 673.262 260.99 674.422 260.99C675.982 260.99 677.232 261.45 678.172 262.37C679.132 263.29 679.612 264.51 679.612 266.03C679.612 267.19 679.352 268.25 678.832 269.21C678.312 270.15 677.592 270.9 676.672 271.46C675.772 272 674.742 272.27 673.582 272.27ZM673.762 268.85C674.402 268.85 674.912 268.58 675.292 268.04C675.672 267.48 675.862 266.85 675.862 266.15C675.862 265.63 675.712 265.21 675.412 264.89C675.132 264.57 674.752 264.41 674.272 264.41C673.592 264.41 673.072 264.69 672.712 265.25C672.352 265.81 672.172 266.44 672.172 267.14C672.172 267.66 672.312 268.08 672.592 268.4C672.872 268.7 673.262 268.85 673.762 268.85Z" fill="white"/>
<rect x="507" y="229" width="190" height="65" rx="10" stroke="black" stroke-width="6"/>
<rect x="507" y="342" width="308" height="100" rx="10" fill="#00A99D"/>
<path d="M522.42 385L527.01 365.2H533.52L534.48 374.8L534.75 379.69H534.78L537.18 374.8L542.43 365.2H549.81L545.22 385H540.66L542.76 375.91L544.17 370.06H544.11L535.8 385H531.84L530.22 370.18H530.16L529.08 375.91L526.98 385H522.42ZM555.161 385.27C553.661 385.27 552.411 384.75 551.411 383.71C550.431 382.67 549.941 381.18 549.941 379.24C549.941 378.04 550.111 376.87 550.451 375.73C550.791 374.59 551.281 373.57 551.921 372.67C552.581 371.75 553.361 371.03 554.261 370.51C555.181 369.97 556.211 369.7 557.351 369.7C558.351 369.7 559.261 369.97 560.081 370.51C560.921 371.05 561.461 371.93 561.701 373.15L562.421 370H567.521L564.041 385H559.421L559.931 382.18C559.451 383.14 558.791 383.9 557.951 384.46C557.111 385 556.181 385.27 555.161 385.27ZM557.381 381.55C558.061 381.55 558.651 381.28 559.151 380.74C559.671 380.18 560.081 379.49 560.381 378.67C560.681 377.85 560.831 377.02 560.831 376.18C560.831 375.34 560.621 374.68 560.201 374.2C559.801 373.7 559.241 373.45 558.521 373.45C557.781 373.45 557.141 373.73 556.601 374.29C556.081 374.85 555.681 375.54 555.401 376.36C555.121 377.16 554.981 377.93 554.981 378.67C554.981 379.59 555.181 380.3 555.581 380.8C555.981 381.3 556.581 381.55 557.381 381.55ZM567.556 385L571.036 370H575.566L574.996 373.42C575.516 372.28 576.206 371.38 577.066 370.72C577.946 370.04 578.986 369.7 580.186 369.7C580.526 369.7 580.806 369.73 581.026 369.79C581.266 369.83 581.466 369.89 581.626 369.97L580.396 374.26C580.196 374.18 579.956 374.11 579.676 374.05C579.416 373.99 579.076 373.96 578.656 373.96C577.716 373.96 576.836 374.28 576.016 374.92C575.196 375.54 574.616 376.59 574.276 378.07L572.656 385H567.556ZM590.292 363.64L587.442 375.97L593.892 370H599.802L593.022 375.91L596.922 385H591.912L589.422 378.79L586.122 381.67L585.342 385H580.242L585.192 363.64H590.292ZM606.192 385.27C604.712 385.27 603.412 384.99 602.292 384.43C601.172 383.87 600.302 383.08 599.682 382.06C599.062 381.04 598.752 379.84 598.752 378.46C598.752 376.78 599.092 375.28 599.772 373.96C600.472 372.64 601.452 371.61 602.712 370.87C603.992 370.11 605.512 369.73 607.272 369.73C609.452 369.73 611.142 370.34 612.342 371.56C613.562 372.76 614.172 374.38 614.172 376.42C614.172 376.8 614.152 377.2 614.112 377.62C614.072 378.04 613.992 378.45 613.872 378.85H603.492C603.512 379.79 603.792 380.51 604.332 381.01C604.872 381.49 605.562 381.73 606.402 381.73C607.122 381.73 607.702 381.57 608.142 381.25C608.582 380.91 608.922 380.49 609.162 379.99L613.362 381.64C612.822 382.78 611.912 383.67 610.632 384.31C609.352 384.95 607.872 385.27 606.192 385.27ZM607.152 373.27C606.232 373.27 605.512 373.55 604.992 374.11C604.472 374.65 604.092 375.31 603.852 376.09H609.282C609.302 375.95 609.312 375.78 609.312 375.58C609.312 374.82 609.112 374.25 608.712 373.87C608.312 373.47 607.792 373.27 607.152 373.27ZM622.316 385.27C620.456 385.27 619.036 384.79 618.056 383.83C617.096 382.85 616.836 381.41 617.276 379.51L618.626 373.63H615.836L616.676 370H619.466L620.186 366.76L625.646 365.32L624.566 370H628.646L627.806 373.63H623.726L622.376 379.39C622.176 380.17 622.266 380.76 622.646 381.16C623.046 381.54 623.626 381.73 624.386 381.73C624.846 381.73 625.216 381.69 625.496 381.61C625.776 381.53 626.036 381.43 626.276 381.31L625.976 384.58C625.436 384.84 624.856 385.02 624.236 385.12C623.616 385.22 622.976 385.27 622.316 385.27ZM634.453 368.26C633.573 368.26 632.883 368.08 632.383 367.72C631.903 367.36 631.713 366.78 631.813 365.98C631.913 365.06 632.223 364.4 632.743 364C633.263 363.58 633.993 363.37 634.933 363.37C635.853 363.37 636.553 363.56 637.033 363.94C637.513 364.3 637.703 364.86 637.603 365.62C637.503 366.6 637.183 367.29 636.643 367.69C636.123 368.07 635.393 368.26 634.453 368.26ZM636.313 370L632.833 385H627.733L631.213 370H636.313ZM636.345 385L639.825 370H644.355L643.905 372.91C644.445 371.87 645.175 371.08 646.095 370.54C647.035 369.98 648.085 369.7 649.245 369.7C650.845 369.7 652.055 370.22 652.875 371.26C653.715 372.28 653.925 373.7 653.505 375.52L651.285 385H646.185L648.255 376.15C648.435 375.35 648.365 374.73 648.045 374.29C647.725 373.83 647.205 373.6 646.485 373.6C644.885 373.6 643.835 374.7 643.335 376.9L641.445 385H636.345ZM660.985 391.45C659.785 391.45 658.655 391.25 657.595 390.85C656.555 390.45 655.705 389.84 655.045 389.02C654.405 388.22 654.075 387.2 654.055 385.96L659.185 385.42C659.205 386.26 659.385 386.92 659.725 387.4C660.065 387.9 660.685 388.15 661.585 388.15C662.325 388.15 662.965 387.89 663.505 387.37C664.065 386.87 664.485 385.98 664.765 384.7L665.365 382.06C664.425 383.76 662.955 384.61 660.955 384.61C659.955 384.61 659.055 384.38 658.255 383.92C657.455 383.44 656.825 382.76 656.365 381.88C655.905 381 655.675 379.94 655.675 378.7C655.675 377.5 655.845 376.36 656.185 375.28C656.545 374.2 657.045 373.24 657.685 372.4C658.325 371.56 659.095 370.9 659.995 370.42C660.895 369.94 661.905 369.7 663.025 369.7C664.005 369.7 664.905 369.98 665.725 370.54C666.565 371.1 667.105 371.97 667.345 373.15L668.065 370H673.165L669.865 384.28C669.445 386.06 668.835 387.47 668.035 388.51C667.255 389.55 666.275 390.3 665.095 390.76C663.915 391.22 662.545 391.45 660.985 391.45ZM663.205 380.92C663.865 380.92 664.435 380.69 664.915 380.23C665.415 379.77 665.795 379.18 666.055 378.46C666.335 377.72 666.475 376.94 666.475 376.12C666.475 375.3 666.265 374.65 665.845 374.17C665.425 373.69 664.855 373.45 664.135 373.45C663.415 373.45 662.795 373.69 662.275 374.17C661.775 374.63 661.385 375.22 661.105 375.94C660.845 376.66 660.715 377.38 660.715 378.1C660.715 378.94 660.925 379.62 661.345 380.14C661.765 380.66 662.385 380.92 663.205 380.92ZM688.597 385.3C686.537 385.3 684.927 384.79 683.767 383.77C682.627 382.75 682.057 381.43 682.057 379.81C682.057 378.17 682.537 376.84 683.497 375.82C684.457 374.8 685.737 374.07 687.337 373.63C686.997 372.61 686.827 371.63 686.827 370.69C686.827 369.55 687.077 368.55 687.577 367.69C688.097 366.81 688.827 366.13 689.767 365.65C690.707 365.15 691.807 364.9 693.067 364.9C694.647 364.9 695.897 365.27 696.817 366.01C697.737 366.73 698.197 367.7 698.197 368.92C698.197 370.52 697.637 371.81 696.517 372.79C695.417 373.75 693.977 374.45 692.197 374.89C692.557 375.55 692.997 376.3 693.517 377.14C693.737 377.48 693.957 377.82 694.177 378.16C694.397 378.5 694.617 378.82 694.837 379.12C695.537 378.22 696.047 377.03 696.367 375.55L699.817 375.64C699.257 377.9 698.317 379.76 696.997 381.22C697.417 381.5 697.857 381.71 698.317 381.85C698.797 381.99 699.307 382.03 699.847 381.97L698.947 385.3H698.437C697.577 385.3 696.777 385.17 696.037 384.91C695.297 384.63 694.597 384.21 693.937 383.65C693.217 384.13 692.427 384.53 691.567 384.85C690.707 385.15 689.717 385.3 688.597 385.3ZM690.817 370.54C690.817 370.82 690.837 371.12 690.877 371.44C690.937 371.76 691.027 372.11 691.147 372.49C692.067 372.29 692.827 371.99 693.427 371.59C694.027 371.19 694.327 370.58 694.327 369.76C694.327 369.28 694.187 368.91 693.907 368.65C693.627 368.37 693.267 368.23 692.827 368.23C692.167 368.23 691.667 368.45 691.327 368.89C690.987 369.33 690.817 369.88 690.817 370.54ZM686.557 379.3C686.557 380.16 686.847 380.83 687.427 381.31C688.007 381.77 688.777 382 689.737 382C690.137 382 690.507 381.96 690.847 381.88C691.207 381.78 691.537 381.64 691.837 381.46C691.397 380.9 690.937 380.24 690.457 379.48C689.697 378.34 689.077 377.32 688.597 376.42C687.957 376.72 687.457 377.1 687.097 377.56C686.737 378.02 686.557 378.6 686.557 379.3ZM522.42 420L527.01 400.2H534C535.88 400.2 537.46 400.54 538.74 401.22C540.02 401.9 540.98 402.85 541.62 404.07C542.28 405.29 542.61 406.7 542.61 408.3C542.61 410.6 542.16 412.63 541.26 414.39C540.38 416.15 539.11 417.53 537.45 418.53C535.81 419.51 533.84 420 531.54 420H522.42ZM528.48 416.1H531.36C532.36 416.1 533.23 415.88 533.97 415.44C534.73 415 535.36 414.41 535.86 413.67C536.38 412.91 536.76 412.07 537 411.15C537.26 410.21 537.39 409.27 537.39 408.33C537.39 407.05 537.06 406.03 536.4 405.27C535.76 404.49 534.77 404.1 533.43 404.1H531.27L528.48 416.1ZM551.7 420.27C550.22 420.27 548.92 419.99 547.8 419.43C546.68 418.87 545.81 418.08 545.19 417.06C544.57 416.04 544.26 414.84 544.26 413.46C544.26 411.78 544.6 410.28 545.28 408.96C545.98 407.64 546.96 406.61 548.22 405.87C549.5 405.11 551.02 404.73 552.78 404.73C554.96 404.73 556.65 405.34 557.85 406.56C559.07 407.76 559.68 409.38 559.68 411.42C559.68 411.8 559.66 412.2 559.62 412.62C559.58 413.04 559.5 413.45 559.38 413.85H549C549.02 414.79 549.3 415.51 549.84 416.01C550.38 416.49 551.07 416.73 551.91 416.73C552.63 416.73 553.21 416.57 553.65 416.25C554.09 415.91 554.43 415.49 554.67 414.99L558.87 416.64C558.33 417.78 557.42 418.67 556.14 419.31C554.86 419.95 553.38 420.27 551.7 420.27ZM552.66 408.27C551.74 408.27 551.02 408.55 550.5 409.11C549.98 409.65 549.6 410.31 549.36 411.09H554.79C554.81 410.95 554.82 410.78 554.82 410.58C554.82 409.82 554.62 409.25 554.22 408.87C553.82 408.47 553.3 408.27 552.66 408.27ZM572.862 405H578.592L569.832 420H563.712L561.852 405H566.892L567.402 416.73L572.862 405ZM585.538 420.27C584.058 420.27 582.758 419.99 581.638 419.43C580.518 418.87 579.648 418.08 579.028 417.06C578.408 416.04 578.098 414.84 578.098 413.46C578.098 411.78 578.438 410.28 579.118 408.96C579.818 407.64 580.798 406.61 582.058 405.87C583.338 405.11 584.858 404.73 586.618 404.73C588.798 404.73 590.488 405.34 591.688 406.56C592.908 407.76 593.518 409.38 593.518 411.42C593.518 411.8 593.498 412.2 593.458 412.62C593.418 413.04 593.338 413.45 593.218 413.85H582.838C582.858 414.79 583.138 415.51 583.678 416.01C584.218 416.49 584.908 416.73 585.748 416.73C586.468 416.73 587.048 416.57 587.488 416.25C587.928 415.91 588.268 415.49 588.508 414.99L592.708 416.64C592.168 417.78 591.258 418.67 589.978 419.31C588.698 419.95 587.218 420.27 585.538 420.27ZM586.498 408.27C585.578 408.27 584.858 408.55 584.338 409.11C583.818 409.65 583.438 410.31 583.198 411.09H588.628C588.648 410.95 588.658 410.78 588.658 410.58C588.658 409.82 588.458 409.25 588.058 408.87C587.658 408.47 587.138 408.27 586.498 408.27ZM599.999 420.27C598.199 420.27 596.929 419.78 596.189 418.8C595.469 417.8 595.309 416.47 595.709 414.81L599.459 398.64H604.559L600.839 414.75C600.519 416.07 600.989 416.73 602.249 416.73C602.729 416.73 603.089 416.69 603.329 416.61L602.429 419.91C601.829 420.15 601.019 420.27 599.999 420.27ZM612.695 420.3C611.155 420.3 609.835 420 608.735 419.4C607.635 418.8 606.785 417.99 606.185 416.97C605.585 415.95 605.285 414.79 605.285 413.49C605.285 411.87 605.615 410.4 606.275 409.08C606.955 407.74 607.925 406.68 609.185 405.9C610.465 405.1 612.015 404.7 613.835 404.7C615.375 404.7 616.695 405 617.795 405.6C618.895 406.2 619.745 407.01 620.345 408.03C620.945 409.05 621.245 410.21 621.245 411.51C621.245 413.13 620.905 414.6 620.225 415.92C619.565 417.24 618.595 418.3 617.315 419.1C616.055 419.9 614.515 420.3 612.695 420.3ZM612.755 416.7C613.455 416.7 614.065 416.42 614.585 415.86C615.105 415.28 615.505 414.56 615.785 413.7C616.085 412.84 616.235 411.97 616.235 411.09C616.235 410.23 616.025 409.55 615.605 409.05C615.185 408.55 614.565 408.3 613.745 408.3C613.065 408.3 612.465 408.59 611.945 409.17C611.425 409.73 611.015 410.44 610.715 411.3C610.415 412.16 610.265 413.03 610.265 413.91C610.265 414.75 610.475 415.43 610.895 415.95C611.335 416.45 611.955 416.7 612.755 416.7ZM620.813 426.3L625.733 405H630.353L629.843 407.91C630.383 406.91 631.103 406.13 632.003 405.57C632.903 405.01 633.893 404.73 634.973 404.73C636.393 404.73 637.563 405.24 638.483 406.26C639.403 407.28 639.863 408.75 639.863 410.67C639.863 411.89 639.693 413.08 639.353 414.24C639.013 415.38 638.523 416.41 637.883 417.33C637.263 418.23 636.513 418.95 635.633 419.49C634.773 420.03 633.813 420.3 632.753 420.3C631.693 420.3 630.713 420.03 629.813 419.49C628.913 418.95 628.333 418.08 628.073 416.88L625.913 426.3H620.813ZM631.313 416.55C632.033 416.55 632.653 416.27 633.173 415.71C633.693 415.15 634.093 414.47 634.373 413.67C634.673 412.85 634.823 412.05 634.823 411.27C634.823 410.39 634.613 409.71 634.193 409.23C633.773 408.73 633.193 408.48 632.453 408.48C631.753 408.48 631.143 408.75 630.623 409.29C630.103 409.83 629.693 410.51 629.393 411.33C629.113 412.15 628.973 412.99 628.973 413.85C628.973 414.67 629.173 415.33 629.573 415.83C629.973 416.31 630.553 416.55 631.313 416.55ZM640.798 420L644.278 405H648.808L648.358 407.88C648.898 406.86 649.628 406.08 650.548 405.54C651.468 404.98 652.508 404.7 653.668 404.7C654.808 404.7 655.748 404.98 656.488 405.54C657.248 406.1 657.728 406.89 657.928 407.91C658.508 406.87 659.258 406.08 660.178 405.54C661.118 404.98 662.158 404.7 663.298 404.7C664.358 404.7 665.258 404.94 665.998 405.42C666.738 405.88 667.248 406.55 667.528 407.43C667.808 408.29 667.808 409.33 667.528 410.55L665.338 420H660.238L662.308 411.18C662.488 410.38 662.418 409.75 662.098 409.29C661.798 408.83 661.308 408.6 660.628 408.6C659.848 408.6 659.208 408.86 658.708 409.38C658.208 409.9 657.828 410.65 657.568 411.63L655.618 420H650.518L652.588 411.18C652.768 410.38 652.698 409.75 652.378 409.29C652.078 408.83 651.588 408.6 650.908 408.6C650.088 408.6 649.418 408.89 648.898 409.47C648.398 410.03 648.028 410.84 647.788 411.9L645.898 420H640.798ZM677.178 420.27C675.698 420.27 674.398 419.99 673.278 419.43C672.158 418.87 671.288 418.08 670.668 417.06C670.048 416.04 669.738 414.84 669.738 413.46C669.738 411.78 670.078 410.28 670.758 408.96C671.458 407.64 672.438 406.61 673.698 405.87C674.978 405.11 676.498 404.73 678.258 404.73C680.438 404.73 682.128 405.34 683.328 406.56C684.548 407.76 685.158 409.38 685.158 411.42C685.158 411.8 685.138 412.2 685.098 412.62C685.058 413.04 684.978 413.45 684.858 413.85H674.478C674.498 414.79 674.778 415.51 675.318 416.01C675.858 416.49 676.548 416.73 677.388 416.73C678.108 416.73 678.688 416.57 679.128 416.25C679.568 415.91 679.908 415.49 680.148 414.99L684.348 416.64C683.808 417.78 682.898 418.67 681.618 419.31C680.338 419.95 678.858 420.27 677.178 420.27ZM678.138 408.27C677.218 408.27 676.498 408.55 675.978 409.11C675.458 409.65 675.078 410.31 674.838 411.09H680.268C680.288 410.95 680.298 410.78 680.298 410.58C680.298 409.82 680.098 409.25 679.698 408.87C679.298 408.47 678.778 408.27 678.138 408.27ZM686.179 420L689.659 405H694.189L693.739 407.91C694.279 406.87 695.009 406.08 695.929 405.54C696.869 404.98 697.919 404.7 699.079 404.7C700.679 404.7 701.889 405.22 702.709 406.26C703.549 407.28 703.759 408.7 703.339 410.52L701.119 420H696.019L698.089 411.15C698.269 410.35 698.199 409.73 697.879 409.29C697.559 408.83 697.039 408.6 696.319 408.6C694.719 408.6 693.669 409.7 693.169 411.9L691.279 420H686.179ZM712.111 420.27C710.251 420.27 708.831 419.79 707.851 418.83C706.891 417.85 706.631 416.41 707.071 414.51L708.421 408.63H705.631L706.471 405H709.261L709.981 401.76L715.441 400.32L714.361 405H718.441L717.601 408.63H713.521L712.171 414.39C711.971 415.17 712.061 415.76 712.441 416.16C712.841 416.54 713.421 416.73 714.181 416.73C714.641 416.73 715.011 416.69 715.291 416.61C715.571 416.53 715.831 416.43 716.071 416.31L715.771 419.58C715.231 419.84 714.651 420.02 714.031 420.12C713.411 420.22 712.771 420.27 712.111 420.27Z" fill="white"/>
<path opacity="0.5" d="M741.19 402.8C739.89 402.8 738.71 402.59 737.65 402.17C736.61 401.73 735.74 401.14 735.04 400.4C734.34 399.64 733.85 398.78 733.57 397.82L738.25 396.17C738.37 396.93 738.65 397.58 739.09 398.12C739.55 398.64 740.31 398.9 741.37 398.9C742.39 398.9 743.16 398.58 743.68 397.94C744.2 397.3 744.46 396.54 744.46 395.66C744.46 394.84 744.17 394.21 743.59 393.77C743.03 393.33 742.32 393.11 741.46 393.11C740.9 393.11 740.41 393.19 739.99 393.35C739.59 393.49 739.19 393.7 738.79 393.98L735.1 393.11L738.43 382.7H750.76L749.8 386.69H741.43L739.93 391.07C740.83 390.19 742.07 389.75 743.65 389.75C744.71 389.75 745.65 389.97 746.47 390.41C747.31 390.85 747.97 391.48 748.45 392.3C748.93 393.1 749.17 394.05 749.17 395.15C749.17 396.71 748.83 398.06 748.15 399.2C747.47 400.34 746.53 401.23 745.33 401.87C744.13 402.49 742.75 402.8 741.19 402.8ZM759.319 402.8C756.879 402.8 755.029 402.1 753.769 400.7C752.509 399.28 751.879 397.39 751.879 395.03C751.879 394.43 751.909 393.84 751.969 393.26C752.029 392.66 752.119 392.06 752.239 391.46C752.599 389.82 753.139 388.32 753.859 386.96C754.579 385.58 755.549 384.47 756.769 383.63C757.989 382.79 759.529 382.37 761.389 382.37C763.769 382.37 765.579 383.08 766.819 384.5C768.079 385.9 768.709 387.79 768.709 390.17C768.709 390.75 768.679 391.33 768.619 391.91C768.559 392.49 768.469 393.08 768.349 393.68C768.009 395.32 767.479 396.83 766.759 398.21C766.039 399.59 765.069 400.7 763.849 401.54C762.649 402.38 761.139 402.8 759.319 402.8ZM759.379 398.75C760.379 398.75 761.179 398.28 761.779 397.34C762.399 396.38 762.929 395.02 763.369 393.26C763.549 392.54 763.679 391.88 763.759 391.28C763.859 390.68 763.909 390.14 763.909 389.66C763.909 388.54 763.679 387.72 763.219 387.2C762.779 386.66 762.139 386.39 761.299 386.39C760.259 386.39 759.419 386.87 758.779 387.83C758.159 388.79 757.629 390.16 757.189 391.94C756.829 393.3 756.649 394.49 756.649 395.51C756.649 396.65 756.899 397.48 757.399 398C757.899 398.5 758.559 398.75 759.379 398.75ZM777.067 393.68C775.507 393.68 774.257 393.22 773.317 392.3C772.377 391.38 771.907 390.16 771.907 388.64C771.907 387.48 772.167 386.43 772.687 385.49C773.207 384.55 773.917 383.8 774.817 383.24C775.717 382.68 776.747 382.4 777.907 382.4C779.467 382.4 780.717 382.86 781.657 383.78C782.617 384.7 783.097 385.92 783.097 387.44C783.097 388.6 782.837 389.65 782.317 390.59C781.797 391.53 781.077 392.28 780.157 392.84C779.257 393.4 778.227 393.68 777.067 393.68ZM773.467 402.5L792.097 382.67H796.357L777.757 402.5H773.467ZM777.247 390.26C777.887 390.26 778.397 389.98 778.777 389.42C779.157 388.86 779.347 388.24 779.347 387.56C779.347 387.02 779.197 386.6 778.897 386.3C778.617 385.98 778.237 385.82 777.757 385.82C777.077 385.82 776.557 386.1 776.197 386.66C775.837 387.22 775.657 387.84 775.657 388.52C775.657 389.06 775.797 389.49 776.077 389.81C776.377 390.11 776.767 390.26 777.247 390.26ZM791.947 402.77C790.407 402.77 789.157 402.31 788.197 401.39C787.257 400.47 786.787 399.26 786.787 397.76C786.787 396.58 787.047 395.52 787.567 394.58C788.087 393.64 788.797 392.89 789.697 392.33C790.597 391.77 791.627 391.49 792.787 391.49C794.347 391.49 795.597 391.95 796.537 392.87C797.497 393.79 797.977 395.01 797.977 396.53C797.977 397.69 797.717 398.75 797.197 399.71C796.677 400.65 795.957 401.4 795.037 401.96C794.137 402.5 793.107 402.77 791.947 402.77ZM792.127 399.35C792.767 399.35 793.277 399.08 793.657 398.54C794.037 397.98 794.227 397.35 794.227 396.65C794.227 396.13 794.077 395.71 793.777 395.39C793.497 395.07 793.117 394.91 792.637 394.91C791.957 394.91 791.437 395.19 791.077 395.75C790.717 396.31 790.537 396.94 790.537 397.64C790.537 398.16 790.677 398.58 790.957 398.9C791.237 399.2 791.627 399.35 792.127 399.35Z" fill="white"/>
<rect x="507" y="342" width="308" height="100" rx="10" stroke="black" stroke-width="6"/>
<rect x="507" y="490" width="279" height="65" rx="10" fill="#7B61FF"/>
<path d="M541.11 517.19H531.24L530.25 521.39H538.35L537.42 525.38H529.35L527.58 533H522.42L527.01 513.2H542.04L541.11 517.19ZM547.48 533.3C545.94 533.3 544.62 533 543.52 532.4C542.42 531.8 541.57 530.99 540.97 529.97C540.37 528.95 540.07 527.79 540.07 526.49C540.07 524.87 540.4 523.4 541.06 522.08C541.74 520.74 542.71 519.68 543.97 518.9C545.25 518.1 546.8 517.7 548.62 517.7C550.16 517.7 551.48 518 552.58 518.6C553.68 519.2 554.53 520.01 555.13 521.03C555.73 522.05 556.03 523.21 556.03 524.51C556.03 526.13 555.69 527.6 555.01 528.92C554.35 530.24 553.38 531.3 552.1 532.1C550.84 532.9 549.3 533.3 547.48 533.3ZM547.54 529.7C548.24 529.7 548.85 529.42 549.37 528.86C549.89 528.28 550.29 527.56 550.57 526.7C550.87 525.84 551.02 524.97 551.02 524.09C551.02 523.23 550.81 522.55 550.39 522.05C549.97 521.55 549.35 521.3 548.53 521.3C547.85 521.3 547.25 521.59 546.73 522.17C546.21 522.73 545.8 523.44 545.5 524.3C545.2 525.16 545.05 526.03 545.05 526.91C545.05 527.75 545.26 528.43 545.68 528.95C546.12 529.45 546.74 529.7 547.54 529.7ZM562.47 533.27C561.41 533.27 560.5 533.04 559.74 532.58C559 532.12 558.48 531.47 558.18 530.63C557.88 529.77 557.86 528.75 558.12 527.57L560.37 518H565.47L563.43 526.82C563.23 527.64 563.3 528.27 563.64 528.71C564 529.15 564.53 529.37 565.23 529.37C566.03 529.37 566.68 529.09 567.18 528.53C567.68 527.97 568.05 527.16 568.29 526.1L570.18 518H575.28L571.8 533H567.27L567.72 530.09C567.18 531.13 566.45 531.92 565.53 532.46C564.63 533 563.61 533.27 562.47 533.27ZM575.291 533L578.771 518H583.301L582.851 520.91C583.391 519.87 584.121 519.08 585.041 518.54C585.981 517.98 587.031 517.7 588.191 517.7C589.791 517.7 591.001 518.22 591.821 519.26C592.661 520.28 592.871 521.7 592.451 523.52L590.231 533H585.131L587.201 524.15C587.381 523.35 587.311 522.73 586.991 522.29C586.671 521.83 586.151 521.6 585.431 521.6C583.831 521.6 582.781 522.7 582.281 524.9L580.391 533H575.291ZM599.722 533.27C598.222 533.27 596.972 532.75 595.972 531.71C594.992 530.67 594.502 529.18 594.502 527.24C594.502 526.04 594.672 524.87 595.012 523.73C595.352 522.59 595.842 521.57 596.482 520.67C597.142 519.75 597.922 519.03 598.822 518.51C599.742 517.97 600.772 517.7 601.912 517.7C602.912 517.7 603.822 517.97 604.642 518.51C605.482 519.05 606.022 519.93 606.262 521.15L608.452 511.64H613.552L608.602 533H603.982L604.492 530.18C604.012 531.14 603.352 531.9 602.512 532.46C601.672 533 600.742 533.27 599.722 533.27ZM601.942 529.55C602.622 529.55 603.212 529.28 603.712 528.74C604.232 528.18 604.642 527.49 604.942 526.67C605.242 525.85 605.392 525.02 605.392 524.18C605.392 523.34 605.182 522.68 604.762 522.2C604.362 521.7 603.802 521.45 603.082 521.45C602.342 521.45 601.702 521.73 601.162 522.29C600.642 522.85 600.242 523.54 599.962 524.36C599.682 525.16 599.542 525.93 599.542 526.67C599.542 527.59 599.742 528.3 600.142 528.8C600.542 529.3 601.142 529.55 601.942 529.55ZM618.267 533.27C616.767 533.27 615.517 532.75 614.517 531.71C613.537 530.67 613.047 529.18 613.047 527.24C613.047 526.04 613.217 524.87 613.557 523.73C613.897 522.59 614.387 521.57 615.027 520.67C615.687 519.75 616.467 519.03 617.367 518.51C618.287 517.97 619.317 517.7 620.457 517.7C621.457 517.7 622.367 517.97 623.187 518.51C624.027 519.05 624.567 519.93 624.807 521.15L625.527 518H630.627L627.147 533H622.527L623.037 530.18C622.557 531.14 621.897 531.9 621.057 532.46C620.217 533 619.287 533.27 618.267 533.27ZM620.487 529.55C621.167 529.55 621.757 529.28 622.257 528.74C622.777 528.18 623.187 527.49 623.487 526.67C623.787 525.85 623.937 525.02 623.937 524.18C623.937 523.34 623.727 522.68 623.307 522.2C622.907 521.7 622.347 521.45 621.627 521.45C620.887 521.45 620.247 521.73 619.707 522.29C619.187 522.85 618.787 523.54 618.507 524.36C618.227 525.16 618.087 525.93 618.087 526.67C618.087 527.59 618.287 528.3 618.687 528.8C619.087 529.3 619.687 529.55 620.487 529.55ZM638.43 533.27C636.57 533.27 635.15 532.79 634.17 531.83C633.21 530.85 632.95 529.41 633.39 527.51L634.74 521.63H631.95L632.79 518H635.58L636.3 514.76L641.76 513.32L640.68 518H644.76L643.92 521.63H639.84L638.49 527.39C638.29 528.17 638.38 528.76 638.76 529.16C639.16 529.54 639.74 529.73 640.5 529.73C640.96 529.73 641.33 529.69 641.61 529.61C641.89 529.53 642.15 529.43 642.39 529.31L642.09 532.58C641.55 532.84 640.97 533.02 640.35 533.12C639.73 533.22 639.09 533.27 638.43 533.27ZM650.566 516.26C649.686 516.26 648.996 516.08 648.496 515.72C648.016 515.36 647.826 514.78 647.926 513.98C648.026 513.06 648.336 512.4 648.856 512C649.376 511.58 650.106 511.37 651.046 511.37C651.966 511.37 652.666 511.56 653.146 511.94C653.626 512.3 653.816 512.86 653.716 513.62C653.616 514.6 653.296 515.29 652.756 515.69C652.236 516.07 651.506 516.26 650.566 516.26ZM652.426 518L648.946 533H643.846L647.326 518H652.426ZM660.888 533.3C659.348 533.3 658.028 533 656.928 532.4C655.828 531.8 654.978 530.99 654.378 529.97C653.778 528.95 653.478 527.79 653.478 526.49C653.478 524.87 653.808 523.4 654.468 522.08C655.148 520.74 656.118 519.68 657.378 518.9C658.658 518.1 660.208 517.7 662.028 517.7C663.568 517.7 664.888 518 665.988 518.6C667.088 519.2 667.938 520.01 668.538 521.03C669.138 522.05 669.438 523.21 669.438 524.51C669.438 526.13 669.098 527.6 668.418 528.92C667.758 530.24 666.788 531.3 665.508 532.1C664.248 532.9 662.708 533.3 660.888 533.3ZM660.948 529.7C661.648 529.7 662.258 529.42 662.778 528.86C663.298 528.28 663.698 527.56 663.978 526.7C664.278 525.84 664.428 524.97 664.428 524.09C664.428 523.23 664.218 522.55 663.798 522.05C663.378 521.55 662.758 521.3 661.938 521.3C661.258 521.3 660.658 521.59 660.138 522.17C659.618 522.73 659.208 523.44 658.908 524.3C658.608 525.16 658.458 526.03 658.458 526.91C658.458 527.75 658.668 528.43 659.088 528.95C659.528 529.45 660.148 529.7 660.948 529.7ZM670.447 533L673.927 518H678.457L678.007 520.91C678.547 519.87 679.277 519.08 680.197 518.54C681.137 517.98 682.187 517.7 683.347 517.7C684.947 517.7 686.157 518.22 686.977 519.26C687.817 520.28 688.027 521.7 687.607 523.52L685.387 533H680.287L682.357 524.15C682.537 523.35 682.467 522.73 682.147 522.29C681.827 521.83 681.307 521.6 680.587 521.6C678.987 521.6 677.937 522.7 677.437 524.9L675.547 533H670.447Z" fill="white"/>
<path opacity="0.5" d="M712.55 533.3C710.21 533.3 708.36 532.76 707 531.68C705.66 530.58 704.88 529.14 704.66 527.36L709.46 526.34C709.6 528.32 710.6 529.31 712.46 529.31C713.26 529.31 713.9 529.07 714.38 528.59C714.86 528.09 715.1 527.49 715.1 526.79C715.1 525.95 714.82 525.39 714.26 525.11C713.72 524.81 713.07 524.66 712.31 524.66C712.11 524.66 711.86 524.68 711.56 524.72L712.31 521.39C712.47 521.43 712.65 521.46 712.85 521.48C713.07 521.5 713.29 521.51 713.51 521.51C714.41 521.51 715.1 521.29 715.58 520.85C716.08 520.39 716.33 519.77 716.33 518.99C716.33 518.27 716.09 517.74 715.61 517.4C715.13 517.06 714.58 516.89 713.96 516.89C713.12 516.89 712.47 517.09 712.01 517.49C711.57 517.89 711.24 518.47 711.02 519.23L706.7 517.61C707.26 516.07 708.18 514.9 709.46 514.1C710.76 513.3 712.36 512.9 714.26 512.9C716.44 512.9 718.15 513.37 719.39 514.31C720.63 515.23 721.25 516.49 721.25 518.09C721.25 519.53 720.83 520.72 719.99 521.66C719.17 522.58 718.09 523.08 716.75 523.16L716.72 523.28C717.62 523.42 718.4 523.81 719.06 524.45C719.72 525.07 720.05 525.96 720.05 527.12C720.05 528.44 719.7 529.56 719 530.48C718.32 531.4 717.41 532.1 716.27 532.58C715.13 533.06 713.89 533.3 712.55 533.3ZM730.7 533.3C728.26 533.3 726.41 532.6 725.15 531.2C723.89 529.78 723.26 527.89 723.26 525.53C723.26 524.93 723.29 524.34 723.35 523.76C723.41 523.16 723.5 522.56 723.62 521.96C723.98 520.32 724.52 518.82 725.24 517.46C725.96 516.08 726.93 514.97 728.15 514.13C729.37 513.29 730.91 512.87 732.77 512.87C735.15 512.87 736.96 513.58 738.2 515C739.46 516.4 740.09 518.29 740.09 520.67C740.09 521.25 740.06 521.83 740 522.41C739.94 522.99 739.85 523.58 739.73 524.18C739.39 525.82 738.86 527.33 738.14 528.71C737.42 530.09 736.45 531.2 735.23 532.04C734.03 532.88 732.52 533.3 730.7 533.3ZM730.76 529.25C731.76 529.25 732.56 528.78 733.16 527.84C733.78 526.88 734.31 525.52 734.75 523.76C734.93 523.04 735.06 522.38 735.14 521.78C735.24 521.18 735.29 520.64 735.29 520.16C735.29 519.04 735.06 518.22 734.6 517.7C734.16 517.16 733.52 516.89 732.68 516.89C731.64 516.89 730.8 517.37 730.16 518.33C729.54 519.29 729.01 520.66 728.57 522.44C728.21 523.8 728.03 524.99 728.03 526.01C728.03 527.15 728.28 527.98 728.78 528.5C729.28 529 729.94 529.25 730.76 529.25ZM748.448 524.18C746.888 524.18 745.638 523.72 744.698 522.8C743.758 521.88 743.288 520.66 743.288 519.14C743.288 517.98 743.548 516.93 744.068 515.99C744.588 515.05 745.298 514.3 746.198 513.74C747.098 513.18 748.128 512.9 749.288 512.9C750.848 512.9 752.098 513.36 753.038 514.28C753.998 515.2 754.478 516.42 754.478 517.94C754.478 519.1 754.218 520.15 753.698 521.09C753.178 522.03 752.458 522.78 751.538 523.34C750.638 523.9 749.608 524.18 748.448 524.18ZM744.848 533L763.478 513.17H767.738L749.138 533H744.848ZM748.628 520.76C749.268 520.76 749.778 520.48 750.158 519.92C750.538 519.36 750.728 518.74 750.728 518.06C750.728 517.52 750.578 517.1 750.278 516.8C749.998 516.48 749.618 516.32 749.138 516.32C748.458 516.32 747.938 516.6 747.578 517.16C747.218 517.72 747.038 518.34 747.038 519.02C747.038 519.56 747.178 519.99 747.458 520.31C747.758 520.61 748.148 520.76 748.628 520.76ZM763.328 533.27C761.788 533.27 760.538 532.81 759.578 531.89C758.638 530.97 758.168 529.76 758.168 528.26C758.168 527.08 758.428 526.02 758.948 525.08C759.468 524.14 760.178 523.39 761.078 522.83C761.978 522.27 763.008 521.99 764.168 521.99C765.728 521.99 766.978 522.45 767.918 523.37C768.878 524.29 769.358 525.51 769.358 527.03C769.358 528.19 769.098 529.25 768.578 530.21C768.058 531.15 767.338 531.9 766.418 532.46C765.518 533 764.488 533.27 763.328 533.27ZM763.508 529.85C764.148 529.85 764.658 529.58 765.038 529.04C765.418 528.48 765.608 527.85 765.608 527.15C765.608 526.63 765.458 526.21 765.158 525.89C764.878 525.57 764.498 525.41 764.018 525.41C763.338 525.41 762.818 525.69 762.458 526.25C762.098 526.81 761.918 527.44 761.918 528.14C761.918 528.66 762.058 529.08 762.338 529.4C762.618 529.7 763.008 529.85 763.508 529.85Z" fill="white"/>
<rect x="507" y="490" width="279" height="65" rx="10" stroke="black" stroke-width="6"/>
<defs>
<linearGradient id="paint0_linear_233_12766" x1="248.332" y1="180.272" x2="249.986" y2="245.403" gradientUnits="userSpaceOnUse">
<stop stop-color="#E1AED0"/>
<stop offset="1" stop-color="#FD2CA0"/>
</linearGradient>
<linearGradient id="paint1_linear_233_12766" x1="27.4939" y1="144" x2="36.3171" y2="434.49" gradientUnits="userSpaceOnUse">
<stop stop-color="#E1AED0"/>
<stop offset="1" stop-color="#FD2CA0"/>
</linearGradient>
<linearGradient id="paint2_linear_233_12766" x1="275.931" y1="146" x2="276.4" y2="212.676" gradientUnits="userSpaceOnUse">
<stop stop-color="#E1AED0"/>
<stop offset="1" stop-color="#FD2CA0"/>
</linearGradient>
<linearGradient id="paint3_linear_233_12766" x1="167.473" y1="33" x2="168.69" y2="163.239" gradientUnits="userSpaceOnUse">
<stop stop-color="#E1AED0"/>
<stop offset="1" stop-color="#FD2CA0"/>
</linearGradient>
<linearGradient id="paint4_linear_233_12766" x1="507" y1="116" x2="507.817" y2="182.61" gradientUnits="userSpaceOnUse">
<stop stop-color="#E1AED0"/>
<stop offset="1" stop-color="#FD2CA0"/>
</linearGradient>
<linearGradient id="paint5_linear_233_12766" x1="507" y1="3" x2="507.394" y2="69.6182" gradientUnits="userSpaceOnUse">
<stop stop-color="#E1AED0"/>
<stop offset="1" stop-color="#FD2CA0"/>
</linearGradient>
</defs>
</svg>
